<svg xmlns="http://www.w3.org/2000/svg" xmlns:xlink="http://www.w3.org/1999/xlink" width="500" zoomAndPan="magnify" viewBox="0 0 375 374.999991" height="500" preserveAspectRatio="xMidYMid meet" version="1.0"><defs><g/><clipPath id="9345d60111"><path d="M 18.898438 83 L 356.101562 83 L 356.101562 176.449219 L 18.898438 176.449219 Z M 18.898438 83 " clip-rule="nonzero"/></clipPath><clipPath id="491b0a1537"><path d="M 18.898438 76.179688 L 356.101562 76.179688 L 356.101562 132 L 18.898438 132 Z M 18.898438 76.179688 " clip-rule="nonzero"/></clipPath><clipPath id="0187a5de69"><path d="M 221.808594 81.234375 L 356.101562 81.234375 L 356.101562 138 L 221.808594 138 Z M 221.808594 81.234375 " clip-rule="nonzero"/></clipPath><clipPath id="3e288ebfee"><path d="M 285.800781 85.441406 L 356.101562 85.441406 L 356.101562 115.753906 L 285.800781 115.753906 Z M 285.800781 85.441406 " clip-rule="nonzero"/></clipPath><clipPath id="e7683c6962"><path d="M 46 53.449219 L 111 53.449219 L 111 98 L 46 98 Z M 46 53.449219 " clip-rule="nonzero"/></clipPath><clipPath id="3f3defdf14"><path d="M 18.898438 76.179688 L 356.101562 76.179688 L 356.101562 131.75 L 18.898438 131.75 Z M 18.898438 76.179688 " clip-rule="nonzero"/></clipPath></defs><g clip-path="url(#9345d60111)"><path fill="#ff6961" d="M 281.421875 83.191406 C 225.261719 83.191406 177.773438 144.144531 158.410156 138.585938 C 149.191406 135.976562 144.566406 139.472656 140.476562 142.957031 C 134.828125 147.789062 130.210938 152.625 115.890625 141.28125 C 102.332031 130.550781 94.316406 143.773438 85.167969 156.992188 C 77.667969 167.828125 69.40625 178.664062 56.699219 176.316406 C 28.492188 171.085938 18.898438 115.351562 18.898438 115.351562 L 356.101562 115.351562 C 356.101562 115.351562 320.570312 83.191406 281.421875 83.191406 " fill-opacity="1" fill-rule="nonzero"/></g><g clip-path="url(#491b0a1537)"><path fill="#285943" d="M 344.316406 107.4375 C 317.878906 89.671875 282.683594 92.285156 259.191406 113.753906 C 258.605469 114.34375 257.929688 114.847656 257.339844 115.351562 L 356.101562 115.351562 L 344.316406 107.4375 M 148.894531 96.828125 C 125.996094 74.015625 90.378906 70.054688 63.101562 87.316406 L 18.898438 115.351562 L 167.839844 115.351562 C 166.492188 114.175781 165.0625 112.910156 163.796875 111.648438 L 148.894531 96.828125 M 257.339844 115.351562 L 167.839844 115.351562 C 193.4375 137.160156 231.410156 137.328125 257.339844 115.351562 " fill-opacity="1" fill-rule="nonzero"/></g><g clip-path="url(#0187a5de69)"><path fill="#bfd7ea" d="M 238.195312 137.746094 C 233.007812 137.746094 227.652344 135.84375 222.148438 131.347656 L 221.894531 131.140625 C 234.597656 129.421875 246.933594 124.167969 257.339844 115.351562 L 271.570312 115.351562 C 261.492188 127.375 250.300781 137.753906 238.195312 137.746094 M 356.101562 115.351562 C 356.101562 115.351562 331.417969 93.007812 300.523438 85.566406 C 305.425781 82.597656 310.183594 81.355469 314.730469 81.355469 C 338.4375 81.355469 356.101562 115.351562 356.101562 115.351562 " fill-opacity="1" fill-rule="nonzero"/></g><g clip-path="url(#3e288ebfee)"><path fill="#210203" d="M 356.101562 115.351562 L 344.316406 107.4375 C 332.59375 99.566406 319.15625 95.691406 305.777344 95.691406 C 299.070312 95.691406 292.367188 96.667969 285.910156 98.601562 C 290.515625 93.574219 295.035156 89.183594 299.101562 86.472656 C 299.574219 86.15625 300.054688 85.855469 300.523438 85.566406 C 331.417969 93.007812 356.101562 115.351562 356.101562 115.351562 " fill-opacity="1" fill-rule="nonzero"/></g><path fill="#bfd7ea" d="M 202.664062 115.351562 L 167.839844 115.351562 C 166.492188 114.175781 165.0625 112.910156 163.796875 111.648438 L 148.894531 96.828125 C 145.511719 93.457031 141.847656 90.496094 137.976562 87.953125 C 138.019531 87.9375 138.070312 87.917969 138.117188 87.90625 C 143.566406 86.132812 148.574219 85.328125 153.273438 85.328125 C 172.4375 85.328125 186.371094 98.757812 203.503906 114.769531 C 203.226562 114.964844 202.941406 115.160156 202.664062 115.351562 " fill-opacity="1" fill-rule="nonzero"/><path fill="#210203" d="M 204.128906 115.351562 L 202.664062 115.351562 C 202.941406 115.160156 203.226562 114.964844 203.503906 114.769531 C 203.714844 114.964844 203.917969 115.160156 204.128906 115.351562 " fill-opacity="1" fill-rule="nonzero"/><g clip-path="url(#e7683c6962)"><path fill="#bfd7ea" d="M 46.726562 97.703125 C 58.277344 80.308594 64.84375 55.992188 82.886719 53.636719 C 83.890625 53.507812 84.851562 53.445312 85.765625 53.445312 C 96.859375 53.445312 101.71875 62.492188 106.714844 71.539062 C 107.800781 73.507812 108.886719 75.476562 110.054688 77.355469 C 106.722656 76.863281 103.363281 76.621094 99.992188 76.621094 C 87.261719 76.621094 74.460938 80.128906 63.101562 87.316406 L 46.726562 97.703125 " fill-opacity="1" fill-rule="nonzero"/></g><g clip-path="url(#3f3defdf14)"><path fill="#f4d06f" d="M 221.894531 131.140625 C 215.429688 125.820312 209.617188 120.425781 204.128906 115.351562 L 257.339844 115.351562 C 246.933594 124.167969 234.597656 129.421875 221.894531 131.140625 M 356.101562 115.351562 L 271.570312 115.351562 C 276.140625 109.875 281.066406 103.882812 285.910156 98.601562 C 292.367188 96.667969 299.070312 95.691406 305.777344 95.691406 C 319.15625 95.691406 332.59375 99.566406 344.316406 107.4375 L 356.101562 115.351562 M 204.128906 115.351562 L 167.839844 115.351562 L 204.128906 115.351562 M 167.839844 115.351562 L 18.898438 115.351562 C 31.863281 115.351562 40.109375 107.664062 46.726562 97.703125 L 63.101562 87.316406 C 74.460938 80.128906 87.261719 76.621094 99.992188 76.621094 C 103.363281 76.621094 106.722656 76.863281 110.054688 77.355469 C 114.234375 84.097656 119.34375 89.632812 128.429688 89.632812 C 131.207031 89.632812 134.363281 89.113281 137.976562 87.953125 C 141.847656 90.496094 145.511719 93.457031 148.894531 96.828125 L 163.796875 111.648438 C 165.0625 112.910156 166.492188 114.175781 167.839844 115.351562 " fill-opacity="1" fill-rule="nonzero"/></g><g fill="#ff6961" fill-opacity="1"><g transform="translate(8.144535, 245.523001)"><g><path d="M 11.875 0 C 11.132812 0 10.53125 -0.207031 10.0625 -0.625 C 9.601562 -1.039062 9.328125 -1.554688 9.234375 -2.171875 L 2.171875 -44.421875 C 2.128906 -44.503906 2.109375 -44.632812 2.109375 -44.8125 C 2.109375 -45.164062 2.25 -45.484375 2.53125 -45.765625 C 2.820312 -46.054688 3.144531 -46.203125 3.5 -46.203125 L 12.140625 -46.203125 C 13.421875 -46.203125 14.125 -45.695312 14.25 -44.6875 L 18.28125 -19.734375 L 22.84375 -34.1875 C 23.1875 -35.375 23.910156 -35.96875 25.015625 -35.96875 L 29.96875 -35.96875 C 31.0625 -35.96875 31.785156 -35.375 32.140625 -34.1875 L 36.703125 -19.796875 L 40.78125 -44.6875 C 40.875 -45.207031 41.070312 -45.585938 41.375 -45.828125 C 41.6875 -46.078125 42.171875 -46.203125 42.828125 -46.203125 L 51.484375 -46.203125 C 51.878906 -46.203125 52.207031 -46.054688 52.46875 -45.765625 C 52.726562 -45.484375 52.859375 -45.164062 52.859375 -44.8125 L 52.859375 -44.421875 L 45.796875 -2.171875 C 45.710938 -1.554688 45.425781 -1.039062 44.9375 -0.625 C 44.457031 -0.207031 43.863281 0 43.15625 0 L 36.5 0 C 35.789062 0 35.238281 -0.175781 34.84375 -0.53125 C 34.445312 -0.882812 34.1875 -1.28125 34.0625 -1.71875 L 27.515625 -20 L 20.984375 -1.71875 C 20.804688 -1.28125 20.519531 -0.882812 20.125 -0.53125 C 19.726562 -0.175781 19.179688 0 18.484375 0 Z M 11.875 0 "/></g></g></g><g fill="#ff6961" fill-opacity="1"><g transform="translate(63.122567, 245.523001)"><g><path d="M 14.125 0.65625 C 11.789062 0.65625 9.664062 0.207031 7.75 -0.6875 C 5.84375 -1.59375 4.347656 -2.835938 3.265625 -4.421875 C 2.191406 -6.003906 1.65625 -7.742188 1.65625 -9.640625 C 1.65625 -12.628906 2.894531 -15.054688 5.375 -16.921875 C 7.863281 -18.796875 11.285156 -20.085938 15.640625 -20.796875 L 23.828125 -22.046875 L 23.828125 -22.84375 C 23.828125 -24.46875 23.492188 -25.648438 22.828125 -26.390625 C 22.171875 -27.140625 21.050781 -27.515625 19.46875 -27.515625 C 18.59375 -27.515625 17.859375 -27.359375 17.265625 -27.046875 C 16.671875 -26.742188 16 -26.285156 15.25 -25.671875 C 14.675781 -25.191406 14.171875 -24.84375 13.734375 -24.625 C 13.554688 -24.3125 13.332031 -24.15625 13.0625 -24.15625 L 5.40625 -24.15625 C 4.96875 -24.15625 4.601562 -24.296875 4.3125 -24.578125 C 4.03125 -24.867188 3.910156 -25.210938 3.953125 -25.609375 C 4.003906 -26.796875 4.597656 -28.125 5.734375 -29.59375 C 6.878906 -31.070312 8.617188 -32.335938 10.953125 -33.390625 C 13.285156 -34.453125 16.171875 -34.984375 19.609375 -34.984375 C 25.054688 -34.984375 29.097656 -33.78125 31.734375 -31.375 C 34.378906 -28.976562 35.703125 -25.734375 35.703125 -21.640625 L 35.703125 -1.65625 C 35.703125 -1.207031 35.546875 -0.816406 35.234375 -0.484375 C 34.929688 -0.160156 34.539062 0 34.0625 0 L 25.9375 0 C 25.5 0 25.113281 -0.160156 24.78125 -0.484375 C 24.445312 -0.816406 24.28125 -1.207031 24.28125 -1.65625 L 24.28125 -3.953125 C 23.320312 -2.585938 21.984375 -1.476562 20.265625 -0.625 C 18.546875 0.226562 16.5 0.65625 14.125 0.65625 Z M 17.421875 -7.125 C 19.359375 -7.125 20.929688 -7.757812 22.140625 -9.03125 C 23.347656 -10.3125 23.953125 -12.164062 23.953125 -14.59375 L 23.953125 -15.375 L 18.484375 -14.453125 C 14.785156 -13.742188 12.9375 -12.425781 12.9375 -10.5 C 12.9375 -9.476562 13.363281 -8.660156 14.21875 -8.046875 C 15.082031 -7.429688 16.148438 -7.125 17.421875 -7.125 Z M 17.421875 -7.125 "/></g></g></g><g fill="#ff6961" fill-opacity="1"><g transform="translate(102.260591, 245.523001)"><g><path d="M 16.03125 0 C 15.414062 0 14.941406 -0.140625 14.609375 -0.421875 C 14.285156 -0.710938 14.015625 -1.125 13.796875 -1.65625 L 1.25 -32.28125 C 1.207031 -32.40625 1.1875 -32.578125 1.1875 -32.796875 C 1.1875 -33.242188 1.328125 -33.609375 1.609375 -33.890625 C 1.898438 -34.171875 2.265625 -34.3125 2.703125 -34.3125 L 10.5625 -34.3125 C 11.488281 -34.3125 12.148438 -33.851562 12.546875 -32.9375 L 19.734375 -13.203125 L 27 -32.9375 C 27.125 -33.289062 27.335938 -33.609375 27.640625 -33.890625 C 27.953125 -34.171875 28.375 -34.3125 28.90625 -34.3125 L 36.828125 -34.3125 C 37.222656 -34.3125 37.570312 -34.171875 37.875 -33.890625 C 38.1875 -33.609375 38.34375 -33.242188 38.34375 -32.796875 L 38.21875 -32.28125 L 25.734375 -1.65625 C 25.515625 -1.125 25.226562 -0.710938 24.875 -0.421875 C 24.53125 -0.140625 24.050781 0 23.4375 0 Z M 16.03125 0 "/></g></g></g><g fill="#ff6961" fill-opacity="1"><g transform="translate(141.794616, 245.523001)"><g><path d="M 19.859375 0.65625 C 14.492188 0.65625 10.269531 -0.78125 7.1875 -3.65625 C 4.113281 -6.539062 2.53125 -10.734375 2.4375 -16.234375 L 2.4375 -18.28125 C 2.613281 -23.519531 4.242188 -27.613281 7.328125 -30.5625 C 10.410156 -33.507812 14.566406 -34.984375 19.796875 -34.984375 C 23.578125 -34.984375 26.773438 -34.222656 29.390625 -32.703125 C 32.015625 -31.179688 33.972656 -29.085938 35.265625 -26.421875 C 36.566406 -23.765625 37.21875 -20.742188 37.21875 -17.359375 L 37.21875 -15.703125 C 37.21875 -15.222656 37.050781 -14.816406 36.71875 -14.484375 C 36.394531 -14.148438 35.992188 -13.984375 35.515625 -13.984375 L 14.59375 -13.984375 L 14.59375 -13.59375 C 14.632812 -11.613281 15.09375 -10.019531 15.96875 -8.8125 C 16.851562 -7.601562 18.109375 -7 19.734375 -7 C 20.785156 -7 21.628906 -7.207031 22.265625 -7.625 C 22.910156 -8.039062 23.519531 -8.578125 24.09375 -9.234375 C 24.488281 -9.679688 24.804688 -9.957031 25.046875 -10.0625 C 25.285156 -10.175781 25.671875 -10.234375 26.203125 -10.234375 L 34.84375 -10.234375 C 35.238281 -10.234375 35.578125 -10.109375 35.859375 -9.859375 C 36.148438 -9.617188 36.296875 -9.320312 36.296875 -8.96875 C 36.296875 -7.832031 35.644531 -6.492188 34.34375 -4.953125 C 33.050781 -3.410156 31.160156 -2.085938 28.671875 -0.984375 C 26.191406 0.109375 23.253906 0.65625 19.859375 0.65625 Z M 25.078125 -20.71875 L 25.078125 -20.859375 C 25.078125 -22.972656 24.613281 -24.609375 23.6875 -25.765625 C 22.769531 -26.929688 21.472656 -27.515625 19.796875 -27.515625 C 18.128906 -27.515625 16.84375 -26.929688 15.9375 -25.765625 C 15.039062 -24.609375 14.59375 -22.972656 14.59375 -20.859375 L 14.59375 -20.71875 Z M 25.078125 -20.71875 "/></g></g></g><g fill="#ff6961" fill-opacity="1"><g transform="translate(181.196644, 245.523001)"><g><path d="M 5.484375 0 C 4.992188 0 4.582031 -0.148438 4.25 -0.453125 C 3.925781 -0.765625 3.765625 -1.164062 3.765625 -1.65625 L 3.765625 -45.203125 C 3.765625 -45.691406 3.925781 -46.085938 4.25 -46.390625 C 4.582031 -46.703125 4.992188 -46.859375 5.484375 -46.859375 L 13.734375 -46.859375 C 14.210938 -46.859375 14.601562 -46.703125 14.90625 -46.390625 C 15.21875 -46.085938 15.375 -45.691406 15.375 -45.203125 L 15.375 -1.65625 C 15.375 -1.207031 15.21875 -0.816406 14.90625 -0.484375 C 14.601562 -0.160156 14.210938 0 13.734375 0 Z M 5.484375 0 "/></g></g></g><g fill="#ff6961" fill-opacity="1"><g transform="translate(200.336646, 245.523001)"><g><path d="M 19.859375 0.65625 C 14.492188 0.65625 10.269531 -0.78125 7.1875 -3.65625 C 4.113281 -6.539062 2.53125 -10.734375 2.4375 -16.234375 L 2.4375 -18.28125 C 2.613281 -23.519531 4.242188 -27.613281 7.328125 -30.5625 C 10.410156 -33.507812 14.566406 -34.984375 19.796875 -34.984375 C 23.578125 -34.984375 26.773438 -34.222656 29.390625 -32.703125 C 32.015625 -31.179688 33.972656 -29.085938 35.265625 -26.421875 C 36.566406 -23.765625 37.21875 -20.742188 37.21875 -17.359375 L 37.21875 -15.703125 C 37.21875 -15.222656 37.050781 -14.816406 36.71875 -14.484375 C 36.394531 -14.148438 35.992188 -13.984375 35.515625 -13.984375 L 14.59375 -13.984375 L 14.59375 -13.59375 C 14.632812 -11.613281 15.09375 -10.019531 15.96875 -8.8125 C 16.851562 -7.601562 18.109375 -7 19.734375 -7 C 20.785156 -7 21.628906 -7.207031 22.265625 -7.625 C 22.910156 -8.039062 23.519531 -8.578125 24.09375 -9.234375 C 24.488281 -9.679688 24.804688 -9.957031 25.046875 -10.0625 C 25.285156 -10.175781 25.671875 -10.234375 26.203125 -10.234375 L 34.84375 -10.234375 C 35.238281 -10.234375 35.578125 -10.109375 35.859375 -9.859375 C 36.148438 -9.617188 36.296875 -9.320312 36.296875 -8.96875 C 36.296875 -7.832031 35.644531 -6.492188 34.34375 -4.953125 C 33.050781 -3.410156 31.160156 -2.085938 28.671875 -0.984375 C 26.191406 0.109375 23.253906 0.65625 19.859375 0.65625 Z M 25.078125 -20.71875 L 25.078125 -20.859375 C 25.078125 -22.972656 24.613281 -24.609375 23.6875 -25.765625 C 22.769531 -26.929688 21.472656 -27.515625 19.796875 -27.515625 C 18.128906 -27.515625 16.84375 -26.929688 15.9375 -25.765625 C 15.039062 -24.609375 14.59375 -22.972656 14.59375 -20.859375 L 14.59375 -20.71875 Z M 25.078125 -20.71875 "/></g></g></g><g fill="#ff6961" fill-opacity="1"><g transform="translate(239.738674, 245.523001)"><g><path d="M 21.78125 0 C 12.445312 0 7.78125 -4.378906 7.78125 -13.140625 L 7.78125 -25.34375 L 2.578125 -25.34375 C 2.128906 -25.34375 1.738281 -25.503906 1.40625 -25.828125 C 1.082031 -26.160156 0.921875 -26.550781 0.921875 -27 L 0.921875 -32.671875 C 0.921875 -33.148438 1.082031 -33.539062 1.40625 -33.84375 C 1.738281 -34.15625 2.128906 -34.3125 2.578125 -34.3125 L 7.78125 -34.3125 L 7.78125 -45.203125 C 7.78125 -45.691406 7.945312 -46.085938 8.28125 -46.390625 C 8.613281 -46.703125 9 -46.859375 9.4375 -46.859375 L 17.5625 -46.859375 C 18.039062 -46.859375 18.429688 -46.703125 18.734375 -46.390625 C 19.046875 -46.085938 19.203125 -45.691406 19.203125 -45.203125 L 19.203125 -34.3125 L 27.453125 -34.3125 C 27.941406 -34.3125 28.347656 -34.15625 28.671875 -33.84375 C 29.003906 -33.539062 29.171875 -33.148438 29.171875 -32.671875 L 29.171875 -27 C 29.171875 -26.507812 29.003906 -26.109375 28.671875 -25.796875 C 28.347656 -25.492188 27.941406 -25.34375 27.453125 -25.34375 L 19.203125 -25.34375 L 19.203125 -14.125 C 19.203125 -12.582031 19.488281 -11.414062 20.0625 -10.625 C 20.632812 -9.832031 21.5625 -9.4375 22.84375 -9.4375 L 28.046875 -9.4375 C 28.535156 -9.4375 28.929688 -9.269531 29.234375 -8.9375 C 29.546875 -8.613281 29.703125 -8.207031 29.703125 -7.71875 L 29.703125 -1.65625 C 29.703125 -1.207031 29.546875 -0.816406 29.234375 -0.484375 C 28.929688 -0.160156 28.535156 0 28.046875 0 Z M 21.78125 0 "/></g></g></g><g fill="#ff6961" fill-opacity="1"><g transform="translate(271.022676, 245.523001)"><g><path d="M 6.140625 0 C 5.703125 0 5.316406 -0.160156 4.984375 -0.484375 C 4.648438 -0.816406 4.484375 -1.207031 4.484375 -1.65625 L 4.484375 -44.484375 C 4.484375 -44.960938 4.632812 -45.367188 4.9375 -45.703125 C 5.25 -46.035156 5.648438 -46.203125 6.140625 -46.203125 L 36.828125 -46.203125 C 37.304688 -46.203125 37.710938 -46.035156 38.046875 -45.703125 C 38.378906 -45.367188 38.546875 -44.960938 38.546875 -44.484375 L 38.546875 -37.484375 C 38.546875 -37.003906 38.378906 -36.609375 38.046875 -36.296875 C 37.710938 -35.992188 37.304688 -35.84375 36.828125 -35.84375 L 16.625 -35.84375 L 16.625 -26.65625 L 35.515625 -26.65625 C 35.992188 -26.65625 36.394531 -26.488281 36.71875 -26.15625 C 37.050781 -25.832031 37.21875 -25.429688 37.21875 -24.953125 L 37.21875 -17.953125 C 37.21875 -17.460938 37.050781 -17.0625 36.71875 -16.75 C 36.394531 -16.445312 35.992188 -16.296875 35.515625 -16.296875 L 16.625 -16.296875 L 16.625 -1.65625 C 16.625 -1.207031 16.46875 -0.816406 16.15625 -0.484375 C 15.851562 -0.160156 15.460938 0 14.984375 0 Z M 6.140625 0 "/></g></g></g><g fill="#ff6961" fill-opacity="1"><g transform="translate(312.008704, 245.523001)"><g><path d="M 6.203125 0 C 5.722656 0 5.316406 -0.148438 4.984375 -0.453125 C 4.648438 -0.765625 4.484375 -1.164062 4.484375 -1.65625 L 4.484375 -44.484375 C 4.484375 -44.960938 4.648438 -45.367188 4.984375 -45.703125 C 5.316406 -46.035156 5.722656 -46.203125 6.203125 -46.203125 L 13.65625 -46.203125 C 14.757812 -46.203125 15.550781 -45.71875 16.03125 -44.75 L 27.390625 -24.421875 L 38.8125 -44.75 C 39.289062 -45.71875 40.082031 -46.203125 41.1875 -46.203125 L 48.640625 -46.203125 C 49.128906 -46.203125 49.535156 -46.035156 49.859375 -45.703125 C 50.191406 -45.367188 50.359375 -44.960938 50.359375 -44.484375 L 50.359375 -1.65625 C 50.359375 -1.164062 50.191406 -0.765625 49.859375 -0.453125 C 49.535156 -0.148438 49.128906 0 48.640625 0 L 40.265625 0 C 39.816406 0 39.425781 -0.160156 39.09375 -0.484375 C 38.769531 -0.816406 38.609375 -1.207031 38.609375 -1.65625 L 38.609375 -25.671875 L 31.484375 -12.609375 C 30.910156 -11.597656 30.140625 -11.09375 29.171875 -11.09375 L 25.609375 -11.09375 C 24.722656 -11.09375 23.953125 -11.597656 23.296875 -12.609375 L 16.234375 -25.671875 L 16.234375 -1.65625 C 16.234375 -1.164062 16.066406 -0.765625 15.734375 -0.453125 C 15.410156 -0.148438 15.003906 0 14.515625 0 Z M 6.203125 0 "/></g></g></g><g fill="#210203" fill-opacity="1"><g transform="translate(20.285159, 279.122998)"><g><path d="M 1.984375 0 C 1.847656 0 1.742188 -0.0351562 1.671875 -0.109375 C 1.597656 -0.191406 1.5625 -0.289062 1.5625 -0.40625 L 1.5625 -12.171875 C 1.5625 -12.296875 1.597656 -12.394531 1.671875 -12.46875 C 1.742188 -12.550781 1.847656 -12.59375 1.984375 -12.59375 L 6.0625 -12.59375 C 7.300781 -12.59375 8.296875 -12.40625 9.046875 -12.03125 C 9.804688 -11.664062 10.359375 -11.117188 10.703125 -10.390625 C 11.054688 -9.671875 11.238281 -8.78125 11.25 -7.71875 C 11.257812 -7.175781 11.265625 -6.703125 11.265625 -6.296875 C 11.265625 -5.890625 11.257812 -5.421875 11.25 -4.890625 C 11.226562 -3.785156 11.046875 -2.867188 10.703125 -2.140625 C 10.359375 -1.421875 9.816406 -0.882812 9.078125 -0.53125 C 8.335938 -0.175781 7.363281 0 6.15625 0 Z M 3.328125 -1.53125 L 6.0625 -1.53125 C 6.894531 -1.53125 7.554688 -1.644531 8.046875 -1.875 C 8.535156 -2.101562 8.890625 -2.46875 9.109375 -2.96875 C 9.335938 -3.46875 9.457031 -4.132812 9.46875 -4.96875 C 9.488281 -5.332031 9.5 -5.644531 9.5 -5.90625 C 9.5 -6.175781 9.5 -6.445312 9.5 -6.71875 C 9.5 -6.988281 9.488281 -7.300781 9.46875 -7.65625 C 9.445312 -8.8125 9.171875 -9.664062 8.640625 -10.21875 C 8.109375 -10.78125 7.21875 -11.0625 5.96875 -11.0625 L 3.328125 -11.0625 Z M 3.328125 -1.53125 "/></g></g></g><g fill="#210203" fill-opacity="1"><g transform="translate(32.687121, 279.122998)"><g><path d="M 1.75 0 C 1.625 0 1.519531 -0.0351562 1.4375 -0.109375 C 1.363281 -0.191406 1.328125 -0.289062 1.328125 -0.40625 L 1.328125 -8.953125 C 1.328125 -9.066406 1.363281 -9.160156 1.4375 -9.234375 C 1.519531 -9.316406 1.625 -9.359375 1.75 -9.359375 L 2.609375 -9.359375 C 2.734375 -9.359375 2.832031 -9.316406 2.90625 -9.234375 C 2.988281 -9.160156 3.03125 -9.066406 3.03125 -8.953125 L 3.03125 -0.40625 C 3.03125 -0.289062 2.988281 -0.191406 2.90625 -0.109375 C 2.832031 -0.0351562 2.734375 0 2.609375 0 Z M 1.609375 -11.109375 C 1.484375 -11.109375 1.378906 -11.144531 1.296875 -11.21875 C 1.222656 -11.300781 1.1875 -11.398438 1.1875 -11.515625 L 1.1875 -12.484375 C 1.1875 -12.609375 1.222656 -12.710938 1.296875 -12.796875 C 1.378906 -12.878906 1.484375 -12.921875 1.609375 -12.921875 L 2.734375 -12.921875 C 2.859375 -12.921875 2.960938 -12.878906 3.046875 -12.796875 C 3.128906 -12.710938 3.171875 -12.609375 3.171875 -12.484375 L 3.171875 -11.515625 C 3.171875 -11.398438 3.128906 -11.300781 3.046875 -11.21875 C 2.960938 -11.144531 2.859375 -11.109375 2.734375 -11.109375 Z M 1.609375 -11.109375 "/></g></g></g><g fill="#210203" fill-opacity="1"><g transform="translate(37.043108, 279.122998)"><g><path d="M 4.578125 0.1875 C 3.898438 0.1875 3.320312 0.101562 2.84375 -0.0625 C 2.363281 -0.238281 1.972656 -0.445312 1.671875 -0.6875 C 1.367188 -0.925781 1.144531 -1.164062 1 -1.40625 C 0.851562 -1.644531 0.769531 -1.835938 0.75 -1.984375 C 0.738281 -2.109375 0.78125 -2.207031 0.875 -2.28125 C 0.976562 -2.351562 1.078125 -2.390625 1.171875 -2.390625 L 1.984375 -2.390625 C 2.035156 -2.390625 2.082031 -2.378906 2.125 -2.359375 C 2.175781 -2.347656 2.234375 -2.300781 2.296875 -2.21875 C 2.453125 -2.050781 2.625 -1.878906 2.8125 -1.703125 C 3.007812 -1.535156 3.25 -1.398438 3.53125 -1.296875 C 3.8125 -1.191406 4.164062 -1.140625 4.59375 -1.140625 C 5.207031 -1.140625 5.710938 -1.253906 6.109375 -1.484375 C 6.503906 -1.722656 6.703125 -2.066406 6.703125 -2.515625 C 6.703125 -2.816406 6.617188 -3.054688 6.453125 -3.234375 C 6.285156 -3.421875 5.992188 -3.582031 5.578125 -3.71875 C 5.171875 -3.863281 4.609375 -4.015625 3.890625 -4.171875 C 3.171875 -4.335938 2.597656 -4.546875 2.171875 -4.796875 C 1.753906 -5.046875 1.457031 -5.335938 1.28125 -5.671875 C 1.101562 -6.015625 1.015625 -6.40625 1.015625 -6.84375 C 1.015625 -7.28125 1.144531 -7.707031 1.40625 -8.125 C 1.664062 -8.539062 2.050781 -8.878906 2.5625 -9.140625 C 3.070312 -9.410156 3.710938 -9.546875 4.484375 -9.546875 C 5.109375 -9.546875 5.640625 -9.46875 6.078125 -9.3125 C 6.523438 -9.15625 6.890625 -8.957031 7.171875 -8.71875 C 7.460938 -8.488281 7.679688 -8.257812 7.828125 -8.03125 C 7.972656 -7.800781 8.050781 -7.609375 8.0625 -7.453125 C 8.070312 -7.328125 8.035156 -7.222656 7.953125 -7.140625 C 7.867188 -7.066406 7.773438 -7.03125 7.671875 -7.03125 L 6.90625 -7.03125 C 6.820312 -7.03125 6.753906 -7.046875 6.703125 -7.078125 C 6.648438 -7.117188 6.597656 -7.164062 6.546875 -7.21875 C 6.429688 -7.375 6.289062 -7.53125 6.125 -7.6875 C 5.96875 -7.84375 5.757812 -7.96875 5.5 -8.0625 C 5.238281 -8.164062 4.898438 -8.21875 4.484375 -8.21875 C 3.878906 -8.21875 3.425781 -8.09375 3.125 -7.84375 C 2.832031 -7.59375 2.6875 -7.273438 2.6875 -6.890625 C 2.6875 -6.660156 2.75 -6.457031 2.875 -6.28125 C 3.007812 -6.101562 3.257812 -5.941406 3.625 -5.796875 C 4 -5.648438 4.554688 -5.492188 5.296875 -5.328125 C 6.085938 -5.171875 6.707031 -4.957031 7.15625 -4.6875 C 7.613281 -4.425781 7.9375 -4.125 8.125 -3.78125 C 8.320312 -3.4375 8.421875 -3.035156 8.421875 -2.578125 C 8.421875 -2.066406 8.273438 -1.601562 7.984375 -1.1875 C 7.703125 -0.769531 7.269531 -0.4375 6.6875 -0.1875 C 6.113281 0.0625 5.410156 0.1875 4.578125 0.1875 Z M 4.578125 0.1875 "/></g></g></g><g fill="#210203" fill-opacity="1"><g transform="translate(46.223077, 279.122998)"><g><path d="M 5.109375 0.1875 C 4.253906 0.1875 3.519531 0.0195312 2.90625 -0.3125 C 2.289062 -0.644531 1.8125 -1.117188 1.46875 -1.734375 C 1.132812 -2.347656 0.957031 -3.085938 0.9375 -3.953125 C 0.925781 -4.140625 0.921875 -4.378906 0.921875 -4.671875 C 0.921875 -4.972656 0.925781 -5.21875 0.9375 -5.40625 C 0.957031 -6.269531 1.132812 -7.007812 1.46875 -7.625 C 1.8125 -8.238281 2.289062 -8.710938 2.90625 -9.046875 C 3.519531 -9.378906 4.253906 -9.546875 5.109375 -9.546875 C 5.804688 -9.546875 6.40625 -9.445312 6.90625 -9.25 C 7.40625 -9.0625 7.816406 -8.816406 8.140625 -8.515625 C 8.460938 -8.210938 8.703125 -7.882812 8.859375 -7.53125 C 9.023438 -7.1875 9.113281 -6.859375 9.125 -6.546875 C 9.132812 -6.429688 9.097656 -6.335938 9.015625 -6.265625 C 8.929688 -6.191406 8.832031 -6.15625 8.71875 -6.15625 L 7.84375 -6.15625 C 7.726562 -6.15625 7.640625 -6.179688 7.578125 -6.234375 C 7.515625 -6.285156 7.453125 -6.378906 7.390625 -6.515625 C 7.179688 -7.097656 6.890625 -7.507812 6.515625 -7.75 C 6.140625 -8 5.675781 -8.125 5.125 -8.125 C 4.40625 -8.125 3.820312 -7.898438 3.375 -7.453125 C 2.925781 -7.003906 2.679688 -6.289062 2.640625 -5.3125 C 2.628906 -4.875 2.628906 -4.453125 2.640625 -4.046875 C 2.679688 -3.054688 2.925781 -2.335938 3.375 -1.890625 C 3.820312 -1.453125 4.40625 -1.234375 5.125 -1.234375 C 5.675781 -1.234375 6.140625 -1.351562 6.515625 -1.59375 C 6.890625 -1.84375 7.179688 -2.257812 7.390625 -2.84375 C 7.453125 -2.976562 7.515625 -3.070312 7.578125 -3.125 C 7.640625 -3.1875 7.726562 -3.21875 7.84375 -3.21875 L 8.71875 -3.21875 C 8.832031 -3.21875 8.929688 -3.175781 9.015625 -3.09375 C 9.097656 -3.019531 9.132812 -2.925781 9.125 -2.8125 C 9.113281 -2.5625 9.054688 -2.300781 8.953125 -2.03125 C 8.859375 -1.769531 8.707031 -1.503906 8.5 -1.234375 C 8.289062 -0.960938 8.03125 -0.722656 7.71875 -0.515625 C 7.40625 -0.304688 7.03125 -0.132812 6.59375 0 C 6.164062 0.125 5.671875 0.1875 5.109375 0.1875 Z M 5.109375 0.1875 "/></g></g></g><g fill="#210203" fill-opacity="1"><g transform="translate(56.159043, 279.122998)"><g><path d="M 5.171875 0.1875 C 4.253906 0.1875 3.488281 0.015625 2.875 -0.328125 C 2.269531 -0.679688 1.800781 -1.164062 1.46875 -1.78125 C 1.144531 -2.40625 0.96875 -3.113281 0.9375 -3.90625 C 0.925781 -4.113281 0.921875 -4.375 0.921875 -4.6875 C 0.921875 -5.007812 0.925781 -5.265625 0.9375 -5.453125 C 0.96875 -6.253906 1.148438 -6.960938 1.484375 -7.578125 C 1.816406 -8.191406 2.285156 -8.671875 2.890625 -9.015625 C 3.503906 -9.367188 4.265625 -9.546875 5.171875 -9.546875 C 6.066406 -9.546875 6.820312 -9.367188 7.4375 -9.015625 C 8.050781 -8.671875 8.519531 -8.191406 8.84375 -7.578125 C 9.175781 -6.960938 9.359375 -6.253906 9.390625 -5.453125 C 9.398438 -5.265625 9.40625 -5.007812 9.40625 -4.6875 C 9.40625 -4.375 9.398438 -4.113281 9.390625 -3.90625 C 9.359375 -3.113281 9.179688 -2.40625 8.859375 -1.78125 C 8.535156 -1.164062 8.066406 -0.679688 7.453125 -0.328125 C 6.835938 0.015625 6.078125 0.1875 5.171875 0.1875 Z M 5.171875 -1.203125 C 5.910156 -1.203125 6.5 -1.4375 6.9375 -1.90625 C 7.382812 -2.382812 7.628906 -3.082031 7.671875 -4 C 7.679688 -4.175781 7.6875 -4.398438 7.6875 -4.671875 C 7.6875 -4.953125 7.679688 -5.179688 7.671875 -5.359375 C 7.628906 -6.273438 7.382812 -6.96875 6.9375 -7.4375 C 6.5 -7.914062 5.910156 -8.15625 5.171875 -8.15625 C 4.421875 -8.15625 3.820312 -7.914062 3.375 -7.4375 C 2.925781 -6.96875 2.6875 -6.273438 2.65625 -5.359375 C 2.644531 -5.179688 2.640625 -4.953125 2.640625 -4.671875 C 2.640625 -4.398438 2.644531 -4.175781 2.65625 -4 C 2.6875 -3.082031 2.925781 -2.382812 3.375 -1.90625 C 3.820312 -1.4375 4.421875 -1.203125 5.171875 -1.203125 Z M 5.171875 -1.203125 "/></g></g></g><g fill="#210203" fill-opacity="1"><g transform="translate(66.491009, 279.122998)"><g><path d="M 4.59375 0 C 4.40625 0 4.257812 -0.0390625 4.15625 -0.125 C 4.0625 -0.207031 3.984375 -0.316406 3.921875 -0.453125 L 0.59375 -8.796875 C 0.570312 -8.859375 0.5625 -8.921875 0.5625 -8.984375 C 0.5625 -9.085938 0.597656 -9.175781 0.671875 -9.25 C 0.742188 -9.320312 0.832031 -9.359375 0.9375 -9.359375 L 1.796875 -9.359375 C 1.929688 -9.359375 2.035156 -9.320312 2.109375 -9.25 C 2.179688 -9.175781 2.226562 -9.109375 2.25 -9.046875 L 4.984375 -1.96875 L 7.71875 -9.046875 C 7.75 -9.109375 7.796875 -9.175781 7.859375 -9.25 C 7.921875 -9.320312 8.019531 -9.359375 8.15625 -9.359375 L 9.03125 -9.359375 C 9.132812 -9.359375 9.222656 -9.320312 9.296875 -9.25 C 9.367188 -9.175781 9.40625 -9.085938 9.40625 -8.984375 C 9.40625 -8.921875 9.394531 -8.859375 9.375 -8.796875 L 6.03125 -0.453125 C 5.976562 -0.316406 5.898438 -0.207031 5.796875 -0.125 C 5.703125 -0.0390625 5.554688 0 5.359375 0 Z M 4.59375 0 "/></g></g></g><g fill="#210203" fill-opacity="1"><g transform="translate(76.462978, 279.122998)"><g><path d="M 5.078125 0.1875 C 3.828125 0.1875 2.835938 -0.191406 2.109375 -0.953125 C 1.378906 -1.722656 0.976562 -2.769531 0.90625 -4.09375 C 0.882812 -4.238281 0.875 -4.4375 0.875 -4.6875 C 0.875 -4.9375 0.882812 -5.140625 0.90625 -5.296875 C 0.945312 -6.140625 1.140625 -6.882812 1.484375 -7.53125 C 1.835938 -8.175781 2.316406 -8.671875 2.921875 -9.015625 C 3.523438 -9.367188 4.238281 -9.546875 5.0625 -9.546875 C 5.96875 -9.546875 6.726562 -9.351562 7.34375 -8.96875 C 7.96875 -8.582031 8.441406 -8.035156 8.765625 -7.328125 C 9.085938 -6.617188 9.25 -5.789062 9.25 -4.84375 L 9.25 -4.53125 C 9.25 -4.40625 9.207031 -4.304688 9.125 -4.234375 C 9.050781 -4.160156 8.957031 -4.125 8.84375 -4.125 L 2.609375 -4.125 C 2.609375 -4.113281 2.609375 -4.085938 2.609375 -4.046875 C 2.609375 -4.015625 2.609375 -3.984375 2.609375 -3.953125 C 2.628906 -3.460938 2.734375 -3.003906 2.921875 -2.578125 C 3.117188 -2.148438 3.398438 -1.804688 3.765625 -1.546875 C 4.128906 -1.285156 4.5625 -1.15625 5.0625 -1.15625 C 5.488281 -1.15625 5.84375 -1.21875 6.125 -1.34375 C 6.414062 -1.476562 6.648438 -1.625 6.828125 -1.78125 C 7.015625 -1.945312 7.140625 -2.078125 7.203125 -2.171875 C 7.304688 -2.316406 7.390625 -2.40625 7.453125 -2.4375 C 7.515625 -2.46875 7.609375 -2.484375 7.734375 -2.484375 L 8.625 -2.484375 C 8.726562 -2.484375 8.816406 -2.445312 8.890625 -2.375 C 8.972656 -2.3125 9.007812 -2.222656 9 -2.109375 C 8.988281 -1.929688 8.890625 -1.710938 8.703125 -1.453125 C 8.523438 -1.191406 8.269531 -0.9375 7.9375 -0.6875 C 7.613281 -0.4375 7.207031 -0.226562 6.71875 -0.0625 C 6.238281 0.101562 5.691406 0.1875 5.078125 0.1875 Z M 2.609375 -5.359375 L 7.546875 -5.359375 L 7.546875 -5.421875 C 7.546875 -5.960938 7.445312 -6.441406 7.25 -6.859375 C 7.050781 -7.273438 6.765625 -7.601562 6.390625 -7.84375 C 6.015625 -8.09375 5.570312 -8.21875 5.0625 -8.21875 C 4.539062 -8.21875 4.097656 -8.09375 3.734375 -7.84375 C 3.367188 -7.601562 3.085938 -7.273438 2.890625 -6.859375 C 2.703125 -6.441406 2.609375 -5.960938 2.609375 -5.421875 Z M 2.609375 -5.359375 "/></g></g></g><g fill="#210203" fill-opacity="1"><g transform="translate(86.542945, 279.122998)"><g><path d="M 1.75 0 C 1.625 0 1.519531 -0.0351562 1.4375 -0.109375 C 1.363281 -0.191406 1.328125 -0.289062 1.328125 -0.40625 L 1.328125 -8.921875 C 1.328125 -9.046875 1.363281 -9.148438 1.4375 -9.234375 C 1.519531 -9.316406 1.625 -9.359375 1.75 -9.359375 L 2.578125 -9.359375 C 2.691406 -9.359375 2.789062 -9.316406 2.875 -9.234375 C 2.957031 -9.148438 3 -9.046875 3 -8.921875 L 3 -8.140625 C 3.238281 -8.546875 3.566406 -8.847656 3.984375 -9.046875 C 4.410156 -9.253906 4.925781 -9.359375 5.53125 -9.359375 L 6.234375 -9.359375 C 6.347656 -9.359375 6.441406 -9.316406 6.515625 -9.234375 C 6.597656 -9.160156 6.640625 -9.066406 6.640625 -8.953125 L 6.640625 -8.203125 C 6.640625 -8.085938 6.597656 -7.992188 6.515625 -7.921875 C 6.441406 -7.847656 6.347656 -7.8125 6.234375 -7.8125 L 5.140625 -7.8125 C 4.492188 -7.8125 3.984375 -7.617188 3.609375 -7.234375 C 3.242188 -6.859375 3.0625 -6.347656 3.0625 -5.703125 L 3.0625 -0.40625 C 3.0625 -0.289062 3.019531 -0.191406 2.9375 -0.109375 C 2.851562 -0.0351562 2.75 0 2.625 0 Z M 1.75 0 "/></g></g></g><g fill="#210203" fill-opacity="1"><g transform="translate(93.382929, 279.122998)"><g><path d="M 1.203125 1.34375 C 1.109375 1.34375 1.035156 1.304688 0.984375 1.234375 C 0.929688 1.171875 0.910156 1.082031 0.921875 0.96875 L 1.328125 -1.609375 C 1.359375 -1.742188 1.410156 -1.863281 1.484375 -1.96875 C 1.566406 -2.070312 1.6875 -2.125 1.84375 -2.125 L 3.046875 -2.125 C 3.128906 -2.125 3.195312 -2.09375 3.25 -2.03125 C 3.300781 -1.96875 3.328125 -1.894531 3.328125 -1.8125 C 3.328125 -1.71875 3.3125 -1.625 3.28125 -1.53125 L 2.328125 0.9375 C 2.273438 1.050781 2.207031 1.144531 2.125 1.21875 C 2.050781 1.300781 1.941406 1.34375 1.796875 1.34375 Z M 1.203125 1.34375 "/></g></g></g><g fill="#210203" fill-opacity="1"><g transform="translate(97.864916, 279.122998)"><g/></g></g><g fill="#210203" fill-opacity="1"><g transform="translate(102.274908, 279.122998)"><g><path d="M 4.578125 0.1875 C 3.898438 0.1875 3.320312 0.101562 2.84375 -0.0625 C 2.363281 -0.238281 1.972656 -0.445312 1.671875 -0.6875 C 1.367188 -0.925781 1.144531 -1.164062 1 -1.40625 C 0.851562 -1.644531 0.769531 -1.835938 0.75 -1.984375 C 0.738281 -2.109375 0.78125 -2.207031 0.875 -2.28125 C 0.976562 -2.351562 1.078125 -2.390625 1.171875 -2.390625 L 1.984375 -2.390625 C 2.035156 -2.390625 2.082031 -2.378906 2.125 -2.359375 C 2.175781 -2.347656 2.234375 -2.300781 2.296875 -2.21875 C 2.453125 -2.050781 2.625 -1.878906 2.8125 -1.703125 C 3.007812 -1.535156 3.25 -1.398438 3.53125 -1.296875 C 3.8125 -1.191406 4.164062 -1.140625 4.59375 -1.140625 C 5.207031 -1.140625 5.710938 -1.253906 6.109375 -1.484375 C 6.503906 -1.722656 6.703125 -2.066406 6.703125 -2.515625 C 6.703125 -2.816406 6.617188 -3.054688 6.453125 -3.234375 C 6.285156 -3.421875 5.992188 -3.582031 5.578125 -3.71875 C 5.171875 -3.863281 4.609375 -4.015625 3.890625 -4.171875 C 3.171875 -4.335938 2.597656 -4.546875 2.171875 -4.796875 C 1.753906 -5.046875 1.457031 -5.335938 1.28125 -5.671875 C 1.101562 -6.015625 1.015625 -6.40625 1.015625 -6.84375 C 1.015625 -7.28125 1.144531 -7.707031 1.40625 -8.125 C 1.664062 -8.539062 2.050781 -8.878906 2.5625 -9.140625 C 3.070312 -9.410156 3.710938 -9.546875 4.484375 -9.546875 C 5.109375 -9.546875 5.640625 -9.46875 6.078125 -9.3125 C 6.523438 -9.15625 6.890625 -8.957031 7.171875 -8.71875 C 7.460938 -8.488281 7.679688 -8.257812 7.828125 -8.03125 C 7.972656 -7.800781 8.050781 -7.609375 8.0625 -7.453125 C 8.070312 -7.328125 8.035156 -7.222656 7.953125 -7.140625 C 7.867188 -7.066406 7.773438 -7.03125 7.671875 -7.03125 L 6.90625 -7.03125 C 6.820312 -7.03125 6.753906 -7.046875 6.703125 -7.078125 C 6.648438 -7.117188 6.597656 -7.164062 6.546875 -7.21875 C 6.429688 -7.375 6.289062 -7.53125 6.125 -7.6875 C 5.96875 -7.84375 5.757812 -7.96875 5.5 -8.0625 C 5.238281 -8.164062 4.898438 -8.21875 4.484375 -8.21875 C 3.878906 -8.21875 3.425781 -8.09375 3.125 -7.84375 C 2.832031 -7.59375 2.6875 -7.273438 2.6875 -6.890625 C 2.6875 -6.660156 2.75 -6.457031 2.875 -6.28125 C 3.007812 -6.101562 3.257812 -5.941406 3.625 -5.796875 C 4 -5.648438 4.554688 -5.492188 5.296875 -5.328125 C 6.085938 -5.171875 6.707031 -4.957031 7.15625 -4.6875 C 7.613281 -4.425781 7.9375 -4.125 8.125 -3.78125 C 8.320312 -3.4375 8.421875 -3.035156 8.421875 -2.578125 C 8.421875 -2.066406 8.273438 -1.601562 7.984375 -1.1875 C 7.703125 -0.769531 7.269531 -0.4375 6.6875 -0.1875 C 6.113281 0.0625 5.410156 0.1875 4.578125 0.1875 Z M 4.578125 0.1875 "/></g></g></g><g fill="#210203" fill-opacity="1"><g transform="translate(111.454877, 279.122998)"><g><path d="M 1.765625 0 C 1.640625 0 1.535156 -0.0351562 1.453125 -0.109375 C 1.378906 -0.191406 1.34375 -0.289062 1.34375 -0.40625 L 1.34375 -12.359375 C 1.34375 -12.484375 1.378906 -12.582031 1.453125 -12.65625 C 1.535156 -12.738281 1.640625 -12.78125 1.765625 -12.78125 L 2.65625 -12.78125 C 2.789062 -12.78125 2.894531 -12.738281 2.96875 -12.65625 C 3.039062 -12.582031 3.078125 -12.484375 3.078125 -12.359375 L 3.078125 -8.171875 C 3.398438 -8.578125 3.796875 -8.90625 4.265625 -9.15625 C 4.734375 -9.414062 5.328125 -9.546875 6.046875 -9.546875 C 6.828125 -9.546875 7.488281 -9.375 8.03125 -9.03125 C 8.582031 -8.6875 9 -8.210938 9.28125 -7.609375 C 9.5625 -7.003906 9.703125 -6.296875 9.703125 -5.484375 L 9.703125 -0.40625 C 9.703125 -0.289062 9.664062 -0.191406 9.59375 -0.109375 C 9.519531 -0.0351562 9.414062 0 9.28125 0 L 8.390625 0 C 8.265625 0 8.160156 -0.0351562 8.078125 -0.109375 C 8.003906 -0.191406 7.96875 -0.289062 7.96875 -0.40625 L 7.96875 -5.40625 C 7.96875 -6.238281 7.765625 -6.890625 7.359375 -7.359375 C 6.953125 -7.835938 6.351562 -8.078125 5.5625 -8.078125 C 4.820312 -8.078125 4.222656 -7.835938 3.765625 -7.359375 C 3.304688 -6.890625 3.078125 -6.238281 3.078125 -5.40625 L 3.078125 -0.40625 C 3.078125 -0.289062 3.039062 -0.191406 2.96875 -0.109375 C 2.894531 -0.0351562 2.789062 0 2.65625 0 Z M 1.765625 0 "/></g></g></g><g fill="#210203" fill-opacity="1"><g transform="translate(122.41684, 279.122998)"><g><path d="M 3.9375 0.1875 C 3.34375 0.1875 2.796875 0.0664062 2.296875 -0.171875 C 1.804688 -0.421875 1.410156 -0.75 1.109375 -1.15625 C 0.816406 -1.5625 0.671875 -2.019531 0.671875 -2.53125 C 0.671875 -3.363281 1.003906 -4.023438 1.671875 -4.515625 C 2.347656 -5.003906 3.222656 -5.328125 4.296875 -5.484375 L 6.984375 -5.875 L 6.984375 -6.390625 C 6.984375 -6.960938 6.816406 -7.410156 6.484375 -7.734375 C 6.160156 -8.054688 5.625 -8.21875 4.875 -8.21875 C 4.351562 -8.21875 3.921875 -8.109375 3.578125 -7.890625 C 3.242188 -7.679688 3.007812 -7.410156 2.875 -7.078125 C 2.800781 -6.890625 2.675781 -6.796875 2.5 -6.796875 L 1.6875 -6.796875 C 1.5625 -6.796875 1.460938 -6.832031 1.390625 -6.90625 C 1.328125 -6.988281 1.296875 -7.085938 1.296875 -7.203125 C 1.296875 -7.378906 1.363281 -7.597656 1.5 -7.859375 C 1.632812 -8.128906 1.847656 -8.390625 2.140625 -8.640625 C 2.429688 -8.890625 2.800781 -9.101562 3.25 -9.28125 C 3.695312 -9.457031 4.242188 -9.546875 4.890625 -9.546875 C 5.609375 -9.546875 6.210938 -9.453125 6.703125 -9.265625 C 7.203125 -9.078125 7.59375 -8.828125 7.875 -8.515625 C 8.15625 -8.203125 8.359375 -7.847656 8.484375 -7.453125 C 8.609375 -7.054688 8.671875 -6.65625 8.671875 -6.25 L 8.671875 -0.40625 C 8.671875 -0.289062 8.628906 -0.191406 8.546875 -0.109375 C 8.472656 -0.0351562 8.378906 0 8.265625 0 L 7.4375 0 C 7.300781 0 7.195312 -0.0351562 7.125 -0.109375 C 7.050781 -0.191406 7.015625 -0.289062 7.015625 -0.40625 L 7.015625 -1.1875 C 6.859375 -0.96875 6.648438 -0.753906 6.390625 -0.546875 C 6.128906 -0.335938 5.800781 -0.160156 5.40625 -0.015625 C 5.007812 0.117188 4.519531 0.1875 3.9375 0.1875 Z M 4.3125 -1.171875 C 4.8125 -1.171875 5.265625 -1.273438 5.671875 -1.484375 C 6.078125 -1.691406 6.394531 -2.015625 6.625 -2.453125 C 6.863281 -2.898438 6.984375 -3.460938 6.984375 -4.140625 L 6.984375 -4.640625 L 4.890625 -4.34375 C 4.046875 -4.21875 3.40625 -4.015625 2.96875 -3.734375 C 2.539062 -3.453125 2.328125 -3.09375 2.328125 -2.65625 C 2.328125 -2.320312 2.425781 -2.046875 2.625 -1.828125 C 2.820312 -1.609375 3.070312 -1.441406 3.375 -1.328125 C 3.675781 -1.222656 3.988281 -1.171875 4.3125 -1.171875 Z M 4.3125 -1.171875 "/></g></g></g><g fill="#210203" fill-opacity="1"><g transform="translate(132.352806, 279.122998)"><g><path d="M 1.75 0 C 1.625 0 1.519531 -0.0351562 1.4375 -0.109375 C 1.363281 -0.191406 1.328125 -0.289062 1.328125 -0.40625 L 1.328125 -8.921875 C 1.328125 -9.046875 1.363281 -9.148438 1.4375 -9.234375 C 1.519531 -9.316406 1.625 -9.359375 1.75 -9.359375 L 2.578125 -9.359375 C 2.691406 -9.359375 2.789062 -9.316406 2.875 -9.234375 C 2.957031 -9.148438 3 -9.046875 3 -8.921875 L 3 -8.140625 C 3.238281 -8.546875 3.566406 -8.847656 3.984375 -9.046875 C 4.410156 -9.253906 4.925781 -9.359375 5.53125 -9.359375 L 6.234375 -9.359375 C 6.347656 -9.359375 6.441406 -9.316406 6.515625 -9.234375 C 6.597656 -9.160156 6.640625 -9.066406 6.640625 -8.953125 L 6.640625 -8.203125 C 6.640625 -8.085938 6.597656 -7.992188 6.515625 -7.921875 C 6.441406 -7.847656 6.347656 -7.8125 6.234375 -7.8125 L 5.140625 -7.8125 C 4.492188 -7.8125 3.984375 -7.617188 3.609375 -7.234375 C 3.242188 -6.859375 3.0625 -6.347656 3.0625 -5.703125 L 3.0625 -0.40625 C 3.0625 -0.289062 3.019531 -0.191406 2.9375 -0.109375 C 2.851562 -0.0351562 2.75 0 2.625 0 Z M 1.75 0 "/></g></g></g><g fill="#210203" fill-opacity="1"><g transform="translate(139.19279, 279.122998)"><g><path d="M 5.078125 0.1875 C 3.828125 0.1875 2.835938 -0.191406 2.109375 -0.953125 C 1.378906 -1.722656 0.976562 -2.769531 0.90625 -4.09375 C 0.882812 -4.238281 0.875 -4.4375 0.875 -4.6875 C 0.875 -4.9375 0.882812 -5.140625 0.90625 -5.296875 C 0.945312 -6.140625 1.140625 -6.882812 1.484375 -7.53125 C 1.835938 -8.175781 2.316406 -8.671875 2.921875 -9.015625 C 3.523438 -9.367188 4.238281 -9.546875 5.0625 -9.546875 C 5.96875 -9.546875 6.726562 -9.351562 7.34375 -8.96875 C 7.96875 -8.582031 8.441406 -8.035156 8.765625 -7.328125 C 9.085938 -6.617188 9.25 -5.789062 9.25 -4.84375 L 9.25 -4.53125 C 9.25 -4.40625 9.207031 -4.304688 9.125 -4.234375 C 9.050781 -4.160156 8.957031 -4.125 8.84375 -4.125 L 2.609375 -4.125 C 2.609375 -4.113281 2.609375 -4.085938 2.609375 -4.046875 C 2.609375 -4.015625 2.609375 -3.984375 2.609375 -3.953125 C 2.628906 -3.460938 2.734375 -3.003906 2.921875 -2.578125 C 3.117188 -2.148438 3.398438 -1.804688 3.765625 -1.546875 C 4.128906 -1.285156 4.5625 -1.15625 5.0625 -1.15625 C 5.488281 -1.15625 5.84375 -1.21875 6.125 -1.34375 C 6.414062 -1.476562 6.648438 -1.625 6.828125 -1.78125 C 7.015625 -1.945312 7.140625 -2.078125 7.203125 -2.171875 C 7.304688 -2.316406 7.390625 -2.40625 7.453125 -2.4375 C 7.515625 -2.46875 7.609375 -2.484375 7.734375 -2.484375 L 8.625 -2.484375 C 8.726562 -2.484375 8.816406 -2.445312 8.890625 -2.375 C 8.972656 -2.3125 9.007812 -2.222656 9 -2.109375 C 8.988281 -1.929688 8.890625 -1.710938 8.703125 -1.453125 C 8.523438 -1.191406 8.269531 -0.9375 7.9375 -0.6875 C 7.613281 -0.4375 7.207031 -0.226562 6.71875 -0.0625 C 6.238281 0.101562 5.691406 0.1875 5.078125 0.1875 Z M 2.609375 -5.359375 L 7.546875 -5.359375 L 7.546875 -5.421875 C 7.546875 -5.960938 7.445312 -6.441406 7.25 -6.859375 C 7.050781 -7.273438 6.765625 -7.601562 6.390625 -7.84375 C 6.015625 -8.09375 5.570312 -8.21875 5.0625 -8.21875 C 4.539062 -8.21875 4.097656 -8.09375 3.734375 -7.84375 C 3.367188 -7.601562 3.085938 -7.273438 2.890625 -6.859375 C 2.703125 -6.441406 2.609375 -5.960938 2.609375 -5.421875 Z M 2.609375 -5.359375 "/></g></g></g><g fill="#210203" fill-opacity="1"><g transform="translate(149.272757, 279.122998)"><g/></g></g><g fill="#210203" fill-opacity="1"><g transform="translate(153.682749, 279.122998)"><g><path d="M 3.9375 0.1875 C 3.34375 0.1875 2.796875 0.0664062 2.296875 -0.171875 C 1.804688 -0.421875 1.410156 -0.75 1.109375 -1.15625 C 0.816406 -1.5625 0.671875 -2.019531 0.671875 -2.53125 C 0.671875 -3.363281 1.003906 -4.023438 1.671875 -4.515625 C 2.347656 -5.003906 3.222656 -5.328125 4.296875 -5.484375 L 6.984375 -5.875 L 6.984375 -6.390625 C 6.984375 -6.960938 6.816406 -7.410156 6.484375 -7.734375 C 6.160156 -8.054688 5.625 -8.21875 4.875 -8.21875 C 4.351562 -8.21875 3.921875 -8.109375 3.578125 -7.890625 C 3.242188 -7.679688 3.007812 -7.410156 2.875 -7.078125 C 2.800781 -6.890625 2.675781 -6.796875 2.5 -6.796875 L 1.6875 -6.796875 C 1.5625 -6.796875 1.460938 -6.832031 1.390625 -6.90625 C 1.328125 -6.988281 1.296875 -7.085938 1.296875 -7.203125 C 1.296875 -7.378906 1.363281 -7.597656 1.5 -7.859375 C 1.632812 -8.128906 1.847656 -8.390625 2.140625 -8.640625 C 2.429688 -8.890625 2.800781 -9.101562 3.25 -9.28125 C 3.695312 -9.457031 4.242188 -9.546875 4.890625 -9.546875 C 5.609375 -9.546875 6.210938 -9.453125 6.703125 -9.265625 C 7.203125 -9.078125 7.59375 -8.828125 7.875 -8.515625 C 8.15625 -8.203125 8.359375 -7.847656 8.484375 -7.453125 C 8.609375 -7.054688 8.671875 -6.65625 8.671875 -6.25 L 8.671875 -0.40625 C 8.671875 -0.289062 8.628906 -0.191406 8.546875 -0.109375 C 8.472656 -0.0351562 8.378906 0 8.265625 0 L 7.4375 0 C 7.300781 0 7.195312 -0.0351562 7.125 -0.109375 C 7.050781 -0.191406 7.015625 -0.289062 7.015625 -0.40625 L 7.015625 -1.1875 C 6.859375 -0.96875 6.648438 -0.753906 6.390625 -0.546875 C 6.128906 -0.335938 5.800781 -0.160156 5.40625 -0.015625 C 5.007812 0.117188 4.519531 0.1875 3.9375 0.1875 Z M 4.3125 -1.171875 C 4.8125 -1.171875 5.265625 -1.273438 5.671875 -1.484375 C 6.078125 -1.691406 6.394531 -2.015625 6.625 -2.453125 C 6.863281 -2.898438 6.984375 -3.460938 6.984375 -4.140625 L 6.984375 -4.640625 L 4.890625 -4.34375 C 4.046875 -4.21875 3.40625 -4.015625 2.96875 -3.734375 C 2.539062 -3.453125 2.328125 -3.09375 2.328125 -2.65625 C 2.328125 -2.320312 2.425781 -2.046875 2.625 -1.828125 C 2.820312 -1.609375 3.070312 -1.441406 3.375 -1.328125 C 3.675781 -1.222656 3.988281 -1.171875 4.3125 -1.171875 Z M 4.3125 -1.171875 "/></g></g></g><g fill="#210203" fill-opacity="1"><g transform="translate(163.618715, 279.122998)"><g><path d="M 1.75 0 C 1.625 0 1.519531 -0.0351562 1.4375 -0.109375 C 1.363281 -0.191406 1.328125 -0.289062 1.328125 -0.40625 L 1.328125 -8.953125 C 1.328125 -9.066406 1.363281 -9.160156 1.4375 -9.234375 C 1.519531 -9.316406 1.625 -9.359375 1.75 -9.359375 L 2.59375 -9.359375 C 2.707031 -9.359375 2.800781 -9.316406 2.875 -9.234375 C 2.957031 -9.160156 3 -9.066406 3 -8.953125 L 3 -8.15625 C 3.3125 -8.5625 3.703125 -8.894531 4.171875 -9.15625 C 4.648438 -9.414062 5.265625 -9.546875 6.015625 -9.546875 C 6.796875 -9.546875 7.457031 -9.375 8 -9.03125 C 8.539062 -8.6875 8.953125 -8.210938 9.234375 -7.609375 C 9.523438 -7.003906 9.671875 -6.296875 9.671875 -5.484375 L 9.671875 -0.40625 C 9.671875 -0.289062 9.628906 -0.191406 9.546875 -0.109375 C 9.472656 -0.0351562 9.375 0 9.25 0 L 8.359375 0 C 8.234375 0 8.128906 -0.0351562 8.046875 -0.109375 C 7.972656 -0.191406 7.9375 -0.289062 7.9375 -0.40625 L 7.9375 -5.40625 C 7.9375 -6.238281 7.734375 -6.890625 7.328125 -7.359375 C 6.921875 -7.835938 6.320312 -8.078125 5.53125 -8.078125 C 4.78125 -8.078125 4.179688 -7.835938 3.734375 -7.359375 C 3.285156 -6.890625 3.0625 -6.238281 3.0625 -5.40625 L 3.0625 -0.40625 C 3.0625 -0.289062 3.019531 -0.191406 2.9375 -0.109375 C 2.863281 -0.0351562 2.765625 0 2.640625 0 Z M 1.75 0 "/></g></g></g><g fill="#210203" fill-opacity="1"><g transform="translate(174.526685, 279.122998)"><g><path d="M 4.75 0.1875 C 4.09375 0.1875 3.523438 0.0703125 3.046875 -0.15625 C 2.566406 -0.394531 2.171875 -0.71875 1.859375 -1.125 C 1.554688 -1.53125 1.328125 -1.988281 1.171875 -2.5 C 1.023438 -3.019531 0.941406 -3.566406 0.921875 -4.140625 C 0.910156 -4.328125 0.90625 -4.503906 0.90625 -4.671875 C 0.90625 -4.847656 0.910156 -5.03125 0.921875 -5.21875 C 0.941406 -5.78125 1.023438 -6.316406 1.171875 -6.828125 C 1.328125 -7.347656 1.554688 -7.8125 1.859375 -8.21875 C 2.171875 -8.632812 2.566406 -8.957031 3.046875 -9.1875 C 3.523438 -9.425781 4.09375 -9.546875 4.75 -9.546875 C 5.457031 -9.546875 6.046875 -9.414062 6.515625 -9.15625 C 6.984375 -8.90625 7.367188 -8.59375 7.671875 -8.21875 L 7.671875 -12.359375 C 7.671875 -12.484375 7.707031 -12.582031 7.78125 -12.65625 C 7.863281 -12.738281 7.960938 -12.78125 8.078125 -12.78125 L 8.953125 -12.78125 C 9.066406 -12.78125 9.160156 -12.738281 9.234375 -12.65625 C 9.316406 -12.582031 9.359375 -12.484375 9.359375 -12.359375 L 9.359375 -0.40625 C 9.359375 -0.289062 9.316406 -0.191406 9.234375 -0.109375 C 9.160156 -0.0351562 9.066406 0 8.953125 0 L 8.140625 0 C 8.003906 0 7.898438 -0.0351562 7.828125 -0.109375 C 7.753906 -0.191406 7.71875 -0.289062 7.71875 -0.40625 L 7.71875 -1.171875 C 7.414062 -0.785156 7.023438 -0.460938 6.546875 -0.203125 C 6.066406 0.0546875 5.46875 0.1875 4.75 0.1875 Z M 5.125 -1.28125 C 5.726562 -1.28125 6.207031 -1.414062 6.5625 -1.6875 C 6.925781 -1.96875 7.195312 -2.320312 7.375 -2.75 C 7.5625 -3.175781 7.660156 -3.609375 7.671875 -4.046875 C 7.679688 -4.242188 7.6875 -4.472656 7.6875 -4.734375 C 7.6875 -5.003906 7.679688 -5.238281 7.671875 -5.4375 C 7.660156 -5.851562 7.5625 -6.265625 7.375 -6.671875 C 7.1875 -7.085938 6.910156 -7.425781 6.546875 -7.6875 C 6.179688 -7.945312 5.707031 -8.078125 5.125 -8.078125 C 4.519531 -8.078125 4.035156 -7.941406 3.671875 -7.671875 C 3.304688 -7.398438 3.046875 -7.046875 2.890625 -6.609375 C 2.734375 -6.171875 2.644531 -5.703125 2.625 -5.203125 C 2.613281 -4.859375 2.613281 -4.507812 2.625 -4.15625 C 2.644531 -3.65625 2.734375 -3.1875 2.890625 -2.75 C 3.046875 -2.3125 3.304688 -1.957031 3.671875 -1.6875 C 4.035156 -1.414062 4.519531 -1.28125 5.125 -1.28125 Z M 5.125 -1.28125 "/></g></g></g><g fill="#210203" fill-opacity="1"><g transform="translate(185.236649, 279.122998)"><g/></g></g><g fill="#210203" fill-opacity="1"><g transform="translate(189.64664, 279.122998)"><g><path d="M 5.109375 0.1875 C 4.253906 0.1875 3.519531 0.0195312 2.90625 -0.3125 C 2.289062 -0.644531 1.8125 -1.117188 1.46875 -1.734375 C 1.132812 -2.347656 0.957031 -3.085938 0.9375 -3.953125 C 0.925781 -4.140625 0.921875 -4.378906 0.921875 -4.671875 C 0.921875 -4.972656 0.925781 -5.21875 0.9375 -5.40625 C 0.957031 -6.269531 1.132812 -7.007812 1.46875 -7.625 C 1.8125 -8.238281 2.289062 -8.710938 2.90625 -9.046875 C 3.519531 -9.378906 4.253906 -9.546875 5.109375 -9.546875 C 5.804688 -9.546875 6.40625 -9.445312 6.90625 -9.25 C 7.40625 -9.0625 7.816406 -8.816406 8.140625 -8.515625 C 8.460938 -8.210938 8.703125 -7.882812 8.859375 -7.53125 C 9.023438 -7.1875 9.113281 -6.859375 9.125 -6.546875 C 9.132812 -6.429688 9.097656 -6.335938 9.015625 -6.265625 C 8.929688 -6.191406 8.832031 -6.15625 8.71875 -6.15625 L 7.84375 -6.15625 C 7.726562 -6.15625 7.640625 -6.179688 7.578125 -6.234375 C 7.515625 -6.285156 7.453125 -6.378906 7.390625 -6.515625 C 7.179688 -7.097656 6.890625 -7.507812 6.515625 -7.75 C 6.140625 -8 5.675781 -8.125 5.125 -8.125 C 4.40625 -8.125 3.820312 -7.898438 3.375 -7.453125 C 2.925781 -7.003906 2.679688 -6.289062 2.640625 -5.3125 C 2.628906 -4.875 2.628906 -4.453125 2.640625 -4.046875 C 2.679688 -3.054688 2.925781 -2.335938 3.375 -1.890625 C 3.820312 -1.453125 4.40625 -1.234375 5.125 -1.234375 C 5.675781 -1.234375 6.140625 -1.351562 6.515625 -1.59375 C 6.890625 -1.84375 7.179688 -2.257812 7.390625 -2.84375 C 7.453125 -2.976562 7.515625 -3.070312 7.578125 -3.125 C 7.640625 -3.1875 7.726562 -3.21875 7.84375 -3.21875 L 8.71875 -3.21875 C 8.832031 -3.21875 8.929688 -3.175781 9.015625 -3.09375 C 9.097656 -3.019531 9.132812 -2.925781 9.125 -2.8125 C 9.113281 -2.5625 9.054688 -2.300781 8.953125 -2.03125 C 8.859375 -1.769531 8.707031 -1.503906 8.5 -1.234375 C 8.289062 -0.960938 8.03125 -0.722656 7.71875 -0.515625 C 7.40625 -0.304688 7.03125 -0.132812 6.59375 0 C 6.164062 0.125 5.671875 0.1875 5.109375 0.1875 Z M 5.109375 0.1875 "/></g></g></g><g fill="#210203" fill-opacity="1"><g transform="translate(199.582606, 279.122998)"><g><path d="M 5.171875 0.1875 C 4.253906 0.1875 3.488281 0.015625 2.875 -0.328125 C 2.269531 -0.679688 1.800781 -1.164062 1.46875 -1.78125 C 1.144531 -2.40625 0.96875 -3.113281 0.9375 -3.90625 C 0.925781 -4.113281 0.921875 -4.375 0.921875 -4.6875 C 0.921875 -5.007812 0.925781 -5.265625 0.9375 -5.453125 C 0.96875 -6.253906 1.148438 -6.960938 1.484375 -7.578125 C 1.816406 -8.191406 2.285156 -8.671875 2.890625 -9.015625 C 3.503906 -9.367188 4.265625 -9.546875 5.171875 -9.546875 C 6.066406 -9.546875 6.820312 -9.367188 7.4375 -9.015625 C 8.050781 -8.671875 8.519531 -8.191406 8.84375 -7.578125 C 9.175781 -6.960938 9.359375 -6.253906 9.390625 -5.453125 C 9.398438 -5.265625 9.40625 -5.007812 9.40625 -4.6875 C 9.40625 -4.375 9.398438 -4.113281 9.390625 -3.90625 C 9.359375 -3.113281 9.179688 -2.40625 8.859375 -1.78125 C 8.535156 -1.164062 8.066406 -0.679688 7.453125 -0.328125 C 6.835938 0.015625 6.078125 0.1875 5.171875 0.1875 Z M 5.171875 -1.203125 C 5.910156 -1.203125 6.5 -1.4375 6.9375 -1.90625 C 7.382812 -2.382812 7.628906 -3.082031 7.671875 -4 C 7.679688 -4.175781 7.6875 -4.398438 7.6875 -4.671875 C 7.6875 -4.953125 7.679688 -5.179688 7.671875 -5.359375 C 7.628906 -6.273438 7.382812 -6.96875 6.9375 -7.4375 C 6.5 -7.914062 5.910156 -8.15625 5.171875 -8.15625 C 4.421875 -8.15625 3.820312 -7.914062 3.375 -7.4375 C 2.925781 -6.96875 2.6875 -6.273438 2.65625 -5.359375 C 2.644531 -5.179688 2.640625 -4.953125 2.640625 -4.671875 C 2.640625 -4.398438 2.644531 -4.175781 2.65625 -4 C 2.6875 -3.082031 2.925781 -2.382812 3.375 -1.90625 C 3.820312 -1.4375 4.421875 -1.203125 5.171875 -1.203125 Z M 5.171875 -1.203125 "/></g></g></g><g fill="#210203" fill-opacity="1"><g transform="translate(209.914572, 279.122998)"><g><path d="M 1.75 0 C 1.625 0 1.519531 -0.0351562 1.4375 -0.109375 C 1.363281 -0.191406 1.328125 -0.289062 1.328125 -0.40625 L 1.328125 -8.953125 C 1.328125 -9.066406 1.363281 -9.160156 1.4375 -9.234375 C 1.519531 -9.316406 1.625 -9.359375 1.75 -9.359375 L 2.59375 -9.359375 C 2.707031 -9.359375 2.800781 -9.316406 2.875 -9.234375 C 2.957031 -9.160156 3 -9.066406 3 -8.953125 L 3 -8.15625 C 3.3125 -8.5625 3.703125 -8.894531 4.171875 -9.15625 C 4.648438 -9.414062 5.265625 -9.546875 6.015625 -9.546875 C 6.796875 -9.546875 7.457031 -9.375 8 -9.03125 C 8.539062 -8.6875 8.953125 -8.210938 9.234375 -7.609375 C 9.523438 -7.003906 9.671875 -6.296875 9.671875 -5.484375 L 9.671875 -0.40625 C 9.671875 -0.289062 9.628906 -0.191406 9.546875 -0.109375 C 9.472656 -0.0351562 9.375 0 9.25 0 L 8.359375 0 C 8.234375 0 8.128906 -0.0351562 8.046875 -0.109375 C 7.972656 -0.191406 7.9375 -0.289062 7.9375 -0.40625 L 7.9375 -5.40625 C 7.9375 -6.238281 7.734375 -6.890625 7.328125 -7.359375 C 6.921875 -7.835938 6.320312 -8.078125 5.53125 -8.078125 C 4.78125 -8.078125 4.179688 -7.835938 3.734375 -7.359375 C 3.285156 -6.890625 3.0625 -6.238281 3.0625 -5.40625 L 3.0625 -0.40625 C 3.0625 -0.289062 3.019531 -0.191406 2.9375 -0.109375 C 2.863281 -0.0351562 2.765625 0 2.640625 0 Z M 1.75 0 "/></g></g></g><g fill="#210203" fill-opacity="1"><g transform="translate(220.82253, 279.122998)"><g><path d="M 1.75 0 C 1.625 0 1.519531 -0.0351562 1.4375 -0.109375 C 1.363281 -0.191406 1.328125 -0.289062 1.328125 -0.40625 L 1.328125 -8.953125 C 1.328125 -9.066406 1.363281 -9.160156 1.4375 -9.234375 C 1.519531 -9.316406 1.625 -9.359375 1.75 -9.359375 L 2.59375 -9.359375 C 2.707031 -9.359375 2.800781 -9.316406 2.875 -9.234375 C 2.957031 -9.160156 3 -9.066406 3 -8.953125 L 3 -8.15625 C 3.3125 -8.5625 3.703125 -8.894531 4.171875 -9.15625 C 4.648438 -9.414062 5.265625 -9.546875 6.015625 -9.546875 C 6.796875 -9.546875 7.457031 -9.375 8 -9.03125 C 8.539062 -8.6875 8.953125 -8.210938 9.234375 -7.609375 C 9.523438 -7.003906 9.671875 -6.296875 9.671875 -5.484375 L 9.671875 -0.40625 C 9.671875 -0.289062 9.628906 -0.191406 9.546875 -0.109375 C 9.472656 -0.0351562 9.375 0 9.25 0 L 8.359375 0 C 8.234375 0 8.128906 -0.0351562 8.046875 -0.109375 C 7.972656 -0.191406 7.9375 -0.289062 7.9375 -0.40625 L 7.9375 -5.40625 C 7.9375 -6.238281 7.734375 -6.890625 7.328125 -7.359375 C 6.921875 -7.835938 6.320312 -8.078125 5.53125 -8.078125 C 4.78125 -8.078125 4.179688 -7.835938 3.734375 -7.359375 C 3.285156 -6.890625 3.0625 -6.238281 3.0625 -5.40625 L 3.0625 -0.40625 C 3.0625 -0.289062 3.019531 -0.191406 2.9375 -0.109375 C 2.863281 -0.0351562 2.765625 0 2.640625 0 Z M 1.75 0 "/></g></g></g><g fill="#210203" fill-opacity="1"><g transform="translate(231.730489, 279.122998)"><g><path d="M 5.078125 0.1875 C 3.828125 0.1875 2.835938 -0.191406 2.109375 -0.953125 C 1.378906 -1.722656 0.976562 -2.769531 0.90625 -4.09375 C 0.882812 -4.238281 0.875 -4.4375 0.875 -4.6875 C 0.875 -4.9375 0.882812 -5.140625 0.90625 -5.296875 C 0.945312 -6.140625 1.140625 -6.882812 1.484375 -7.53125 C 1.835938 -8.175781 2.316406 -8.671875 2.921875 -9.015625 C 3.523438 -9.367188 4.238281 -9.546875 5.0625 -9.546875 C 5.96875 -9.546875 6.726562 -9.351562 7.34375 -8.96875 C 7.96875 -8.582031 8.441406 -8.035156 8.765625 -7.328125 C 9.085938 -6.617188 9.25 -5.789062 9.25 -4.84375 L 9.25 -4.53125 C 9.25 -4.40625 9.207031 -4.304688 9.125 -4.234375 C 9.050781 -4.160156 8.957031 -4.125 8.84375 -4.125 L 2.609375 -4.125 C 2.609375 -4.113281 2.609375 -4.085938 2.609375 -4.046875 C 2.609375 -4.015625 2.609375 -3.984375 2.609375 -3.953125 C 2.628906 -3.460938 2.734375 -3.003906 2.921875 -2.578125 C 3.117188 -2.148438 3.398438 -1.804688 3.765625 -1.546875 C 4.128906 -1.285156 4.5625 -1.15625 5.0625 -1.15625 C 5.488281 -1.15625 5.84375 -1.21875 6.125 -1.34375 C 6.414062 -1.476562 6.648438 -1.625 6.828125 -1.78125 C 7.015625 -1.945312 7.140625 -2.078125 7.203125 -2.171875 C 7.304688 -2.316406 7.390625 -2.40625 7.453125 -2.4375 C 7.515625 -2.46875 7.609375 -2.484375 7.734375 -2.484375 L 8.625 -2.484375 C 8.726562 -2.484375 8.816406 -2.445312 8.890625 -2.375 C 8.972656 -2.3125 9.007812 -2.222656 9 -2.109375 C 8.988281 -1.929688 8.890625 -1.710938 8.703125 -1.453125 C 8.523438 -1.191406 8.269531 -0.9375 7.9375 -0.6875 C 7.613281 -0.4375 7.207031 -0.226562 6.71875 -0.0625 C 6.238281 0.101562 5.691406 0.1875 5.078125 0.1875 Z M 2.609375 -5.359375 L 7.546875 -5.359375 L 7.546875 -5.421875 C 7.546875 -5.960938 7.445312 -6.441406 7.25 -6.859375 C 7.050781 -7.273438 6.765625 -7.601562 6.390625 -7.84375 C 6.015625 -8.09375 5.570312 -8.21875 5.0625 -8.21875 C 4.539062 -8.21875 4.097656 -8.09375 3.734375 -7.84375 C 3.367188 -7.601562 3.085938 -7.273438 2.890625 -6.859375 C 2.703125 -6.441406 2.609375 -5.960938 2.609375 -5.421875 Z M 2.609375 -5.359375 "/></g></g></g><g fill="#210203" fill-opacity="1"><g transform="translate(241.810444, 279.122998)"><g><path d="M 5.109375 0.1875 C 4.253906 0.1875 3.519531 0.0195312 2.90625 -0.3125 C 2.289062 -0.644531 1.8125 -1.117188 1.46875 -1.734375 C 1.132812 -2.347656 0.957031 -3.085938 0.9375 -3.953125 C 0.925781 -4.140625 0.921875 -4.378906 0.921875 -4.671875 C 0.921875 -4.972656 0.925781 -5.21875 0.9375 -5.40625 C 0.957031 -6.269531 1.132812 -7.007812 1.46875 -7.625 C 1.8125 -8.238281 2.289062 -8.710938 2.90625 -9.046875 C 3.519531 -9.378906 4.253906 -9.546875 5.109375 -9.546875 C 5.804688 -9.546875 6.40625 -9.445312 6.90625 -9.25 C 7.40625 -9.0625 7.816406 -8.816406 8.140625 -8.515625 C 8.460938 -8.210938 8.703125 -7.882812 8.859375 -7.53125 C 9.023438 -7.1875 9.113281 -6.859375 9.125 -6.546875 C 9.132812 -6.429688 9.097656 -6.335938 9.015625 -6.265625 C 8.929688 -6.191406 8.832031 -6.15625 8.71875 -6.15625 L 7.84375 -6.15625 C 7.726562 -6.15625 7.640625 -6.179688 7.578125 -6.234375 C 7.515625 -6.285156 7.453125 -6.378906 7.390625 -6.515625 C 7.179688 -7.097656 6.890625 -7.507812 6.515625 -7.75 C 6.140625 -8 5.675781 -8.125 5.125 -8.125 C 4.40625 -8.125 3.820312 -7.898438 3.375 -7.453125 C 2.925781 -7.003906 2.679688 -6.289062 2.640625 -5.3125 C 2.628906 -4.875 2.628906 -4.453125 2.640625 -4.046875 C 2.679688 -3.054688 2.925781 -2.335938 3.375 -1.890625 C 3.820312 -1.453125 4.40625 -1.234375 5.125 -1.234375 C 5.675781 -1.234375 6.140625 -1.351562 6.515625 -1.59375 C 6.890625 -1.84375 7.179688 -2.257812 7.390625 -2.84375 C 7.453125 -2.976562 7.515625 -3.070312 7.578125 -3.125 C 7.640625 -3.1875 7.726562 -3.21875 7.84375 -3.21875 L 8.71875 -3.21875 C 8.832031 -3.21875 8.929688 -3.175781 9.015625 -3.09375 C 9.097656 -3.019531 9.132812 -2.925781 9.125 -2.8125 C 9.113281 -2.5625 9.054688 -2.300781 8.953125 -2.03125 C 8.859375 -1.769531 8.707031 -1.503906 8.5 -1.234375 C 8.289062 -0.960938 8.03125 -0.722656 7.71875 -0.515625 C 7.40625 -0.304688 7.03125 -0.132812 6.59375 0 C 6.164062 0.125 5.671875 0.1875 5.109375 0.1875 Z M 5.109375 0.1875 "/></g></g></g><g fill="#210203" fill-opacity="1"><g transform="translate(251.74641, 279.122998)"><g><path d="M 4.984375 0 C 4.316406 0 3.769531 -0.128906 3.34375 -0.390625 C 2.925781 -0.648438 2.617188 -1.015625 2.421875 -1.484375 C 2.234375 -1.960938 2.140625 -2.523438 2.140625 -3.171875 L 2.140625 -7.921875 L 0.734375 -7.921875 C 0.617188 -7.921875 0.519531 -7.957031 0.4375 -8.03125 C 0.363281 -8.113281 0.328125 -8.210938 0.328125 -8.328125 L 0.328125 -8.953125 C 0.328125 -9.066406 0.363281 -9.160156 0.4375 -9.234375 C 0.519531 -9.316406 0.617188 -9.359375 0.734375 -9.359375 L 2.140625 -9.359375 L 2.140625 -12.359375 C 2.140625 -12.484375 2.175781 -12.582031 2.25 -12.65625 C 2.332031 -12.738281 2.4375 -12.78125 2.5625 -12.78125 L 3.40625 -12.78125 C 3.519531 -12.78125 3.613281 -12.738281 3.6875 -12.65625 C 3.769531 -12.582031 3.8125 -12.484375 3.8125 -12.359375 L 3.8125 -9.359375 L 6.046875 -9.359375 C 6.179688 -9.359375 6.285156 -9.316406 6.359375 -9.234375 C 6.429688 -9.160156 6.46875 -9.066406 6.46875 -8.953125 L 6.46875 -8.328125 C 6.46875 -8.210938 6.429688 -8.113281 6.359375 -8.03125 C 6.285156 -7.957031 6.179688 -7.921875 6.046875 -7.921875 L 3.8125 -7.921875 L 3.8125 -3.296875 C 3.8125 -2.734375 3.90625 -2.285156 4.09375 -1.953125 C 4.289062 -1.628906 4.632812 -1.46875 5.125 -1.46875 L 6.234375 -1.46875 C 6.347656 -1.46875 6.441406 -1.425781 6.515625 -1.34375 C 6.597656 -1.269531 6.640625 -1.175781 6.640625 -1.0625 L 6.640625 -0.40625 C 6.640625 -0.289062 6.597656 -0.191406 6.515625 -0.109375 C 6.441406 -0.0351562 6.347656 0 6.234375 0 Z M 4.984375 0 "/></g></g></g><g fill="#210203" fill-opacity="1"><g transform="translate(258.784388, 279.122998)"><g/></g></g><g fill="#210203" fill-opacity="1"><g transform="translate(263.194369, 279.122998)"><g><path d="M 3.8125 0 C 3.65625 0 3.535156 -0.0351562 3.453125 -0.109375 C 3.367188 -0.191406 3.296875 -0.304688 3.234375 -0.453125 L 0.6875 -8.796875 C 0.65625 -8.859375 0.640625 -8.921875 0.640625 -8.984375 C 0.640625 -9.085938 0.675781 -9.175781 0.75 -9.25 C 0.832031 -9.320312 0.925781 -9.359375 1.03125 -9.359375 L 1.8125 -9.359375 C 1.945312 -9.359375 2.050781 -9.320312 2.125 -9.25 C 2.195312 -9.175781 2.242188 -9.109375 2.265625 -9.046875 L 4.265625 -2.265625 L 6.40625 -8.984375 C 6.425781 -9.066406 6.472656 -9.148438 6.546875 -9.234375 C 6.628906 -9.316406 6.75 -9.359375 6.90625 -9.359375 L 7.53125 -9.359375 C 7.6875 -9.359375 7.804688 -9.316406 7.890625 -9.234375 C 7.972656 -9.148438 8.019531 -9.066406 8.03125 -8.984375 L 10.171875 -2.265625 L 12.171875 -9.046875 C 12.179688 -9.109375 12.222656 -9.175781 12.296875 -9.25 C 12.367188 -9.320312 12.46875 -9.359375 12.59375 -9.359375 L 13.40625 -9.359375 C 13.5 -9.359375 13.582031 -9.320312 13.65625 -9.25 C 13.726562 -9.175781 13.765625 -9.085938 13.765625 -8.984375 C 13.765625 -8.921875 13.753906 -8.859375 13.734375 -8.796875 L 11.203125 -0.453125 C 11.148438 -0.304688 11.082031 -0.191406 11 -0.109375 C 10.914062 -0.0351562 10.785156 0 10.609375 0 L 9.90625 0 C 9.75 0 9.617188 -0.0351562 9.515625 -0.109375 C 9.410156 -0.191406 9.34375 -0.304688 9.3125 -0.453125 L 7.21875 -6.890625 L 5.125 -0.453125 C 5.082031 -0.304688 5.007812 -0.191406 4.90625 -0.109375 C 4.8125 -0.0351562 4.679688 0 4.515625 0 Z M 3.8125 0 "/></g></g></g><g fill="#210203" fill-opacity="1"><g transform="translate(277.630312, 279.122998)"><g><path d="M 1.75 0 C 1.625 0 1.519531 -0.0351562 1.4375 -0.109375 C 1.363281 -0.191406 1.328125 -0.289062 1.328125 -0.40625 L 1.328125 -8.953125 C 1.328125 -9.066406 1.363281 -9.160156 1.4375 -9.234375 C 1.519531 -9.316406 1.625 -9.359375 1.75 -9.359375 L 2.609375 -9.359375 C 2.734375 -9.359375 2.832031 -9.316406 2.90625 -9.234375 C 2.988281 -9.160156 3.03125 -9.066406 3.03125 -8.953125 L 3.03125 -0.40625 C 3.03125 -0.289062 2.988281 -0.191406 2.90625 -0.109375 C 2.832031 -0.0351562 2.734375 0 2.609375 0 Z M 1.609375 -11.109375 C 1.484375 -11.109375 1.378906 -11.144531 1.296875 -11.21875 C 1.222656 -11.300781 1.1875 -11.398438 1.1875 -11.515625 L 1.1875 -12.484375 C 1.1875 -12.609375 1.222656 -12.710938 1.296875 -12.796875 C 1.378906 -12.878906 1.484375 -12.921875 1.609375 -12.921875 L 2.734375 -12.921875 C 2.859375 -12.921875 2.960938 -12.878906 3.046875 -12.796875 C 3.128906 -12.710938 3.171875 -12.609375 3.171875 -12.484375 L 3.171875 -11.515625 C 3.171875 -11.398438 3.128906 -11.300781 3.046875 -11.21875 C 2.960938 -11.144531 2.859375 -11.109375 2.734375 -11.109375 Z M 1.609375 -11.109375 "/></g></g></g><g fill="#210203" fill-opacity="1"><g transform="translate(281.986299, 279.122998)"><g><path d="M 4.984375 0 C 4.316406 0 3.769531 -0.128906 3.34375 -0.390625 C 2.925781 -0.648438 2.617188 -1.015625 2.421875 -1.484375 C 2.234375 -1.960938 2.140625 -2.523438 2.140625 -3.171875 L 2.140625 -7.921875 L 0.734375 -7.921875 C 0.617188 -7.921875 0.519531 -7.957031 0.4375 -8.03125 C 0.363281 -8.113281 0.328125 -8.210938 0.328125 -8.328125 L 0.328125 -8.953125 C 0.328125 -9.066406 0.363281 -9.160156 0.4375 -9.234375 C 0.519531 -9.316406 0.617188 -9.359375 0.734375 -9.359375 L 2.140625 -9.359375 L 2.140625 -12.359375 C 2.140625 -12.484375 2.175781 -12.582031 2.25 -12.65625 C 2.332031 -12.738281 2.4375 -12.78125 2.5625 -12.78125 L 3.40625 -12.78125 C 3.519531 -12.78125 3.613281 -12.738281 3.6875 -12.65625 C 3.769531 -12.582031 3.8125 -12.484375 3.8125 -12.359375 L 3.8125 -9.359375 L 6.046875 -9.359375 C 6.179688 -9.359375 6.285156 -9.316406 6.359375 -9.234375 C 6.429688 -9.160156 6.46875 -9.066406 6.46875 -8.953125 L 6.46875 -8.328125 C 6.46875 -8.210938 6.429688 -8.113281 6.359375 -8.03125 C 6.285156 -7.957031 6.179688 -7.921875 6.046875 -7.921875 L 3.8125 -7.921875 L 3.8125 -3.296875 C 3.8125 -2.734375 3.90625 -2.285156 4.09375 -1.953125 C 4.289062 -1.628906 4.632812 -1.46875 5.125 -1.46875 L 6.234375 -1.46875 C 6.347656 -1.46875 6.441406 -1.425781 6.515625 -1.34375 C 6.597656 -1.269531 6.640625 -1.175781 6.640625 -1.0625 L 6.640625 -0.40625 C 6.640625 -0.289062 6.597656 -0.191406 6.515625 -0.109375 C 6.441406 -0.0351562 6.347656 0 6.234375 0 Z M 4.984375 0 "/></g></g></g><g fill="#210203" fill-opacity="1"><g transform="translate(289.024278, 279.122998)"><g><path d="M 1.765625 0 C 1.640625 0 1.535156 -0.0351562 1.453125 -0.109375 C 1.378906 -0.191406 1.34375 -0.289062 1.34375 -0.40625 L 1.34375 -12.359375 C 1.34375 -12.484375 1.378906 -12.582031 1.453125 -12.65625 C 1.535156 -12.738281 1.640625 -12.78125 1.765625 -12.78125 L 2.65625 -12.78125 C 2.789062 -12.78125 2.894531 -12.738281 2.96875 -12.65625 C 3.039062 -12.582031 3.078125 -12.484375 3.078125 -12.359375 L 3.078125 -8.171875 C 3.398438 -8.578125 3.796875 -8.90625 4.265625 -9.15625 C 4.734375 -9.414062 5.328125 -9.546875 6.046875 -9.546875 C 6.828125 -9.546875 7.488281 -9.375 8.03125 -9.03125 C 8.582031 -8.6875 9 -8.210938 9.28125 -7.609375 C 9.5625 -7.003906 9.703125 -6.296875 9.703125 -5.484375 L 9.703125 -0.40625 C 9.703125 -0.289062 9.664062 -0.191406 9.59375 -0.109375 C 9.519531 -0.0351562 9.414062 0 9.28125 0 L 8.390625 0 C 8.265625 0 8.160156 -0.0351562 8.078125 -0.109375 C 8.003906 -0.191406 7.96875 -0.289062 7.96875 -0.40625 L 7.96875 -5.40625 C 7.96875 -6.238281 7.765625 -6.890625 7.359375 -7.359375 C 6.953125 -7.835938 6.351562 -8.078125 5.5625 -8.078125 C 4.820312 -8.078125 4.222656 -7.835938 3.765625 -7.359375 C 3.304688 -6.890625 3.078125 -6.238281 3.078125 -5.40625 L 3.078125 -0.40625 C 3.078125 -0.289062 3.039062 -0.191406 2.96875 -0.109375 C 2.894531 -0.0351562 2.789062 0 2.65625 0 Z M 1.765625 0 "/></g></g></g><g fill="#210203" fill-opacity="1"><g transform="translate(299.986252, 279.122998)"><g/></g></g><g fill="#210203" fill-opacity="1"><g transform="translate(304.396255, 279.122998)"><g><path d="M 1.75 0 C 1.625 0 1.519531 -0.0351562 1.4375 -0.109375 C 1.363281 -0.191406 1.328125 -0.289062 1.328125 -0.40625 L 1.328125 -8.953125 C 1.328125 -9.066406 1.363281 -9.160156 1.4375 -9.234375 C 1.519531 -9.316406 1.625 -9.359375 1.75 -9.359375 L 2.5625 -9.359375 C 2.675781 -9.359375 2.769531 -9.316406 2.84375 -9.234375 C 2.925781 -9.160156 2.96875 -9.066406 2.96875 -8.953125 L 2.96875 -8.3125 C 3.25 -8.6875 3.597656 -8.984375 4.015625 -9.203125 C 4.429688 -9.429688 4.9375 -9.546875 5.53125 -9.546875 C 6.882812 -9.554688 7.84375 -9.003906 8.40625 -7.890625 C 8.675781 -8.390625 9.078125 -8.789062 9.609375 -9.09375 C 10.140625 -9.394531 10.738281 -9.546875 11.40625 -9.546875 C 12.03125 -9.546875 12.597656 -9.398438 13.109375 -9.109375 C 13.617188 -8.816406 14.019531 -8.378906 14.3125 -7.796875 C 14.613281 -7.222656 14.765625 -6.492188 14.765625 -5.609375 L 14.765625 -0.40625 C 14.765625 -0.289062 14.722656 -0.191406 14.640625 -0.109375 C 14.566406 -0.0351562 14.46875 0 14.34375 0 L 13.5 0 C 13.375 0 13.269531 -0.0351562 13.1875 -0.109375 C 13.113281 -0.191406 13.078125 -0.289062 13.078125 -0.40625 L 13.078125 -5.453125 C 13.078125 -6.128906 12.984375 -6.65625 12.796875 -7.03125 C 12.609375 -7.414062 12.347656 -7.6875 12.015625 -7.84375 C 11.691406 -8 11.34375 -8.078125 10.96875 -8.078125 C 10.65625 -8.078125 10.332031 -8 10 -7.84375 C 9.675781 -7.6875 9.410156 -7.414062 9.203125 -7.03125 C 8.992188 -6.65625 8.890625 -6.128906 8.890625 -5.453125 L 8.890625 -0.40625 C 8.890625 -0.289062 8.847656 -0.191406 8.765625 -0.109375 C 8.691406 -0.0351562 8.597656 0 8.484375 0 L 7.625 0 C 7.507812 0 7.410156 -0.0351562 7.328125 -0.109375 C 7.253906 -0.191406 7.21875 -0.289062 7.21875 -0.40625 L 7.21875 -5.453125 C 7.21875 -6.128906 7.113281 -6.65625 6.90625 -7.03125 C 6.707031 -7.414062 6.445312 -7.6875 6.125 -7.84375 C 5.800781 -8 5.457031 -8.078125 5.09375 -8.078125 C 4.78125 -8.078125 4.460938 -8 4.140625 -7.84375 C 3.816406 -7.6875 3.550781 -7.414062 3.34375 -7.03125 C 3.132812 -6.65625 3.03125 -6.132812 3.03125 -5.46875 L 3.03125 -0.40625 C 3.03125 -0.289062 2.988281 -0.191406 2.90625 -0.109375 C 2.832031 -0.0351562 2.734375 0 2.609375 0 Z M 1.75 0 "/></g></g></g><g fill="#210203" fill-opacity="1"><g transform="translate(320.398208, 279.122998)"><g><path d="M 4.828125 0.1875 C 4.054688 0.1875 3.398438 0.015625 2.859375 -0.328125 C 2.328125 -0.671875 1.921875 -1.148438 1.640625 -1.765625 C 1.367188 -2.378906 1.234375 -3.082031 1.234375 -3.875 L 1.234375 -8.953125 C 1.234375 -9.066406 1.269531 -9.160156 1.34375 -9.234375 C 1.425781 -9.316406 1.53125 -9.359375 1.65625 -9.359375 L 2.5625 -9.359375 C 2.675781 -9.359375 2.769531 -9.316406 2.84375 -9.234375 C 2.925781 -9.160156 2.96875 -9.066406 2.96875 -8.953125 L 2.96875 -3.953125 C 2.96875 -2.171875 3.75 -1.28125 5.3125 -1.28125 C 6.050781 -1.28125 6.644531 -1.515625 7.09375 -1.984375 C 7.550781 -2.460938 7.78125 -3.117188 7.78125 -3.953125 L 7.78125 -8.953125 C 7.78125 -9.066406 7.816406 -9.160156 7.890625 -9.234375 C 7.972656 -9.316406 8.070312 -9.359375 8.1875 -9.359375 L 9.09375 -9.359375 C 9.207031 -9.359375 9.300781 -9.316406 9.375 -9.234375 C 9.445312 -9.160156 9.484375 -9.066406 9.484375 -8.953125 L 9.484375 -0.40625 C 9.484375 -0.289062 9.445312 -0.191406 9.375 -0.109375 C 9.300781 -0.0351562 9.207031 0 9.09375 0 L 8.25 0 C 8.125 0 8.019531 -0.0351562 7.9375 -0.109375 C 7.863281 -0.191406 7.828125 -0.289062 7.828125 -0.40625 L 7.828125 -1.203125 C 7.503906 -0.785156 7.109375 -0.445312 6.640625 -0.1875 C 6.179688 0.0625 5.578125 0.1875 4.828125 0.1875 Z M 4.828125 0.1875 "/></g></g></g><g fill="#210203" fill-opacity="1"><g transform="translate(331.23416, 279.122998)"><g><path d="M 4.578125 0.1875 C 3.898438 0.1875 3.320312 0.101562 2.84375 -0.0625 C 2.363281 -0.238281 1.972656 -0.445312 1.671875 -0.6875 C 1.367188 -0.925781 1.144531 -1.164062 1 -1.40625 C 0.851562 -1.644531 0.769531 -1.835938 0.75 -1.984375 C 0.738281 -2.109375 0.78125 -2.207031 0.875 -2.28125 C 0.976562 -2.351562 1.078125 -2.390625 1.171875 -2.390625 L 1.984375 -2.390625 C 2.035156 -2.390625 2.082031 -2.378906 2.125 -2.359375 C 2.175781 -2.347656 2.234375 -2.300781 2.296875 -2.21875 C 2.453125 -2.050781 2.625 -1.878906 2.8125 -1.703125 C 3.007812 -1.535156 3.25 -1.398438 3.53125 -1.296875 C 3.8125 -1.191406 4.164062 -1.140625 4.59375 -1.140625 C 5.207031 -1.140625 5.710938 -1.253906 6.109375 -1.484375 C 6.503906 -1.722656 6.703125 -2.066406 6.703125 -2.515625 C 6.703125 -2.816406 6.617188 -3.054688 6.453125 -3.234375 C 6.285156 -3.421875 5.992188 -3.582031 5.578125 -3.71875 C 5.171875 -3.863281 4.609375 -4.015625 3.890625 -4.171875 C 3.171875 -4.335938 2.597656 -4.546875 2.171875 -4.796875 C 1.753906 -5.046875 1.457031 -5.335938 1.28125 -5.671875 C 1.101562 -6.015625 1.015625 -6.40625 1.015625 -6.84375 C 1.015625 -7.28125 1.144531 -7.707031 1.40625 -8.125 C 1.664062 -8.539062 2.050781 -8.878906 2.5625 -9.140625 C 3.070312 -9.410156 3.710938 -9.546875 4.484375 -9.546875 C 5.109375 -9.546875 5.640625 -9.46875 6.078125 -9.3125 C 6.523438 -9.15625 6.890625 -8.957031 7.171875 -8.71875 C 7.460938 -8.488281 7.679688 -8.257812 7.828125 -8.03125 C 7.972656 -7.800781 8.050781 -7.609375 8.0625 -7.453125 C 8.070312 -7.328125 8.035156 -7.222656 7.953125 -7.140625 C 7.867188 -7.066406 7.773438 -7.03125 7.671875 -7.03125 L 6.90625 -7.03125 C 6.820312 -7.03125 6.753906 -7.046875 6.703125 -7.078125 C 6.648438 -7.117188 6.597656 -7.164062 6.546875 -7.21875 C 6.429688 -7.375 6.289062 -7.53125 6.125 -7.6875 C 5.96875 -7.84375 5.757812 -7.96875 5.5 -8.0625 C 5.238281 -8.164062 4.898438 -8.21875 4.484375 -8.21875 C 3.878906 -8.21875 3.425781 -8.09375 3.125 -7.84375 C 2.832031 -7.59375 2.6875 -7.273438 2.6875 -6.890625 C 2.6875 -6.660156 2.75 -6.457031 2.875 -6.28125 C 3.007812 -6.101562 3.257812 -5.941406 3.625 -5.796875 C 4 -5.648438 4.554688 -5.492188 5.296875 -5.328125 C 6.085938 -5.171875 6.707031 -4.957031 7.15625 -4.6875 C 7.613281 -4.425781 7.9375 -4.125 8.125 -3.78125 C 8.320312 -3.4375 8.421875 -3.035156 8.421875 -2.578125 C 8.421875 -2.066406 8.273438 -1.601562 7.984375 -1.1875 C 7.703125 -0.769531 7.269531 -0.4375 6.6875 -0.1875 C 6.113281 0.0625 5.410156 0.1875 4.578125 0.1875 Z M 4.578125 0.1875 "/></g></g></g><g fill="#210203" fill-opacity="1"><g transform="translate(340.414129, 279.122998)"><g><path d="M 1.75 0 C 1.625 0 1.519531 -0.0351562 1.4375 -0.109375 C 1.363281 -0.191406 1.328125 -0.289062 1.328125 -0.40625 L 1.328125 -8.953125 C 1.328125 -9.066406 1.363281 -9.160156 1.4375 -9.234375 C 1.519531 -9.316406 1.625 -9.359375 1.75 -9.359375 L 2.609375 -9.359375 C 2.734375 -9.359375 2.832031 -9.316406 2.90625 -9.234375 C 2.988281 -9.160156 3.03125 -9.066406 3.03125 -8.953125 L 3.03125 -0.40625 C 3.03125 -0.289062 2.988281 -0.191406 2.90625 -0.109375 C 2.832031 -0.0351562 2.734375 0 2.609375 0 Z M 1.609375 -11.109375 C 1.484375 -11.109375 1.378906 -11.144531 1.296875 -11.21875 C 1.222656 -11.300781 1.1875 -11.398438 1.1875 -11.515625 L 1.1875 -12.484375 C 1.1875 -12.609375 1.222656 -12.710938 1.296875 -12.796875 C 1.378906 -12.878906 1.484375 -12.921875 1.609375 -12.921875 L 2.734375 -12.921875 C 2.859375 -12.921875 2.960938 -12.878906 3.046875 -12.796875 C 3.128906 -12.710938 3.171875 -12.609375 3.171875 -12.484375 L 3.171875 -11.515625 C 3.171875 -11.398438 3.128906 -11.300781 3.046875 -11.21875 C 2.960938 -11.144531 2.859375 -11.109375 2.734375 -11.109375 Z M 1.609375 -11.109375 "/></g></g></g><g fill="#210203" fill-opacity="1"><g transform="translate(344.770116, 279.122998)"><g><path d="M 5.109375 0.1875 C 4.253906 0.1875 3.519531 0.0195312 2.90625 -0.3125 C 2.289062 -0.644531 1.8125 -1.117188 1.46875 -1.734375 C 1.132812 -2.347656 0.957031 -3.085938 0.9375 -3.953125 C 0.925781 -4.140625 0.921875 -4.378906 0.921875 -4.671875 C 0.921875 -4.972656 0.925781 -5.21875 0.9375 -5.40625 C 0.957031 -6.269531 1.132812 -7.007812 1.46875 -7.625 C 1.8125 -8.238281 2.289062 -8.710938 2.90625 -9.046875 C 3.519531 -9.378906 4.253906 -9.546875 5.109375 -9.546875 C 5.804688 -9.546875 6.40625 -9.445312 6.90625 -9.25 C 7.40625 -9.0625 7.816406 -8.816406 8.140625 -8.515625 C 8.460938 -8.210938 8.703125 -7.882812 8.859375 -7.53125 C 9.023438 -7.1875 9.113281 -6.859375 9.125 -6.546875 C 9.132812 -6.429688 9.097656 -6.335938 9.015625 -6.265625 C 8.929688 -6.191406 8.832031 -6.15625 8.71875 -6.15625 L 7.84375 -6.15625 C 7.726562 -6.15625 7.640625 -6.179688 7.578125 -6.234375 C 7.515625 -6.285156 7.453125 -6.378906 7.390625 -6.515625 C 7.179688 -7.097656 6.890625 -7.507812 6.515625 -7.75 C 6.140625 -8 5.675781 -8.125 5.125 -8.125 C 4.40625 -8.125 3.820312 -7.898438 3.375 -7.453125 C 2.925781 -7.003906 2.679688 -6.289062 2.640625 -5.3125 C 2.628906 -4.875 2.628906 -4.453125 2.640625 -4.046875 C 2.679688 -3.054688 2.925781 -2.335938 3.375 -1.890625 C 3.820312 -1.453125 4.40625 -1.234375 5.125 -1.234375 C 5.675781 -1.234375 6.140625 -1.351562 6.515625 -1.59375 C 6.890625 -1.84375 7.179688 -2.257812 7.390625 -2.84375 C 7.453125 -2.976562 7.515625 -3.070312 7.578125 -3.125 C 7.640625 -3.1875 7.726562 -3.21875 7.84375 -3.21875 L 8.71875 -3.21875 C 8.832031 -3.21875 8.929688 -3.175781 9.015625 -3.09375 C 9.097656 -3.019531 9.132812 -2.925781 9.125 -2.8125 C 9.113281 -2.5625 9.054688 -2.300781 8.953125 -2.03125 C 8.859375 -1.769531 8.707031 -1.503906 8.5 -1.234375 C 8.289062 -0.960938 8.03125 -0.722656 7.71875 -0.515625 C 7.40625 -0.304688 7.03125 -0.132812 6.59375 0 C 6.164062 0.125 5.671875 0.1875 5.109375 0.1875 Z M 5.109375 0.1875 "/></g></g></g></svg>