<svg xmlns="http://www.w3.org/2000/svg" xmlns:xlink="http://www.w3.org/1999/xlink" width="500" zoomAndPan="magnify" viewBox="0 0 375 374.999991" height="500" preserveAspectRatio="xMidYMid meet" version="1.0"><defs><clipPath id="b268b75bbe"><path d="M 0.164062 152 L 374.835938 152 L 374.835938 255.9375 L 0.164062 255.9375 Z M 0.164062 152 " clip-rule="nonzero"/></clipPath><clipPath id="82539733c4"><path d="M 0.164062 144.320312 L 374.835938 144.320312 L 374.835938 207 L 0.164062 207 Z M 0.164062 144.320312 " clip-rule="nonzero"/></clipPath><clipPath id="2d6238e3d7"><path d="M 225.621094 150 L 374.835938 150 L 374.835938 213 L 225.621094 213 Z M 225.621094 150 " clip-rule="nonzero"/></clipPath><clipPath id="9e2dd49321"><path d="M 296.722656 154.613281 L 374.835938 154.613281 L 374.835938 188 L 296.722656 188 Z M 296.722656 154.613281 " clip-rule="nonzero"/></clipPath><clipPath id="78f93fe775"><path d="M 31 119.0625 L 102 119.0625 L 102 169 L 31 169 Z M 31 119.0625 " clip-rule="nonzero"/></clipPath><clipPath id="0fd1c628c7"><path d="M 0.164062 144.320312 L 374.835938 144.320312 L 374.835938 206 L 0.164062 206 Z M 0.164062 144.320312 " clip-rule="nonzero"/></clipPath></defs><g clip-path="url(#b268b75bbe)"><path fill="#ff6961" d="M 291.855469 152.109375 C 229.457031 152.109375 176.695312 219.835938 155.179688 213.660156 C 144.933594 210.761719 139.796875 214.644531 135.25 218.515625 C 128.972656 223.886719 123.847656 229.257812 107.933594 216.65625 C 92.871094 204.730469 83.964844 219.425781 73.796875 234.113281 C 65.464844 246.152344 56.28125 258.191406 42.167969 255.582031 C 10.828125 249.773438 0.164062 187.84375 0.164062 187.84375 L 374.835938 187.84375 C 374.835938 187.84375 335.359375 152.109375 291.855469 152.109375 " fill-opacity="1" fill-rule="nonzero"/></g><g clip-path="url(#82539733c4)"><path fill="#285943" d="M 361.738281 179.050781 C 332.363281 159.3125 293.261719 162.214844 267.160156 186.070312 C 266.503906 186.722656 265.753906 187.285156 265.101562 187.84375 L 374.835938 187.84375 L 361.738281 179.050781 M 144.605469 167.261719 C 119.160156 141.914062 79.585938 137.511719 49.277344 156.691406 L 0.164062 187.84375 L 165.65625 187.84375 C 164.160156 186.535156 162.570312 185.132812 161.164062 183.730469 L 144.605469 167.261719 M 265.101562 187.84375 L 165.65625 187.84375 C 194.09375 212.078125 236.285156 212.261719 265.101562 187.84375 " fill-opacity="1" fill-rule="nonzero"/></g><g clip-path="url(#2d6238e3d7)"><path fill="#bfd7ea" d="M 243.828125 212.726562 C 238.066406 212.726562 232.113281 210.613281 225.996094 205.617188 L 225.714844 205.390625 C 239.832031 203.476562 253.539062 197.640625 265.101562 187.84375 L 280.910156 187.84375 C 269.714844 201.207031 257.28125 212.734375 243.828125 212.726562 M 374.835938 187.84375 C 374.835938 187.84375 347.40625 163.015625 313.082031 154.75 C 318.527344 151.449219 323.8125 150.070312 328.867188 150.070312 C 355.210938 150.070312 374.835938 187.84375 374.835938 187.84375 " fill-opacity="1" fill-rule="nonzero"/></g><g clip-path="url(#9e2dd49321)"><path fill="#210203" d="M 374.835938 187.84375 L 361.738281 179.050781 C 348.71875 170.304688 333.785156 166 318.921875 166 C 311.464844 166 304.019531 167.085938 296.84375 169.234375 C 301.960938 163.644531 306.984375 158.765625 311.503906 155.757812 C 312.027344 155.40625 312.558594 155.070312 313.082031 154.75 C 347.40625 163.015625 374.835938 187.84375 374.835938 187.84375 " fill-opacity="1" fill-rule="nonzero"/></g><path fill="#bfd7ea" d="M 204.347656 187.84375 L 165.65625 187.84375 C 164.160156 186.535156 162.570312 185.132812 161.164062 183.730469 L 144.605469 167.261719 C 140.847656 163.515625 136.777344 160.226562 132.472656 157.398438 C 132.519531 157.382812 132.574219 157.363281 132.632812 157.347656 C 138.683594 155.378906 144.25 154.484375 149.472656 154.484375 C 170.761719 154.484375 186.246094 169.40625 205.285156 187.199219 C 204.976562 187.414062 204.65625 187.628906 204.347656 187.84375 " fill-opacity="1" fill-rule="nonzero"/><path fill="#210203" d="M 205.976562 187.84375 L 204.347656 187.84375 C 204.65625 187.628906 204.976562 187.414062 205.285156 187.199219 C 205.519531 187.414062 205.742188 187.628906 205.976562 187.84375 " fill-opacity="1" fill-rule="nonzero"/><g clip-path="url(#78f93fe775)"><path fill="#bfd7ea" d="M 31.082031 168.234375 C 43.917969 148.90625 51.214844 121.890625 71.261719 119.269531 C 72.378906 119.128906 73.445312 119.058594 74.464844 119.058594 C 86.789062 119.058594 92.1875 129.113281 97.738281 139.164062 C 98.945312 141.351562 100.152344 143.539062 101.453125 145.625 C 97.746094 145.082031 94.015625 144.8125 90.269531 144.8125 C 76.125 144.8125 61.898438 148.707031 49.277344 156.691406 L 31.082031 168.234375 " fill-opacity="1" fill-rule="nonzero"/></g><g clip-path="url(#0fd1c628c7)"><path fill="#f4d06f" d="M 225.714844 205.390625 C 218.53125 199.476562 212.074219 193.480469 205.976562 187.84375 L 265.101562 187.84375 C 253.539062 197.640625 239.832031 203.476562 225.714844 205.390625 M 374.835938 187.84375 L 280.910156 187.84375 C 285.992188 181.757812 291.464844 175.101562 296.84375 169.234375 C 304.019531 167.085938 311.464844 166 318.921875 166 C 333.785156 166 348.71875 170.304688 361.738281 179.050781 L 374.835938 187.84375 M 205.976562 187.84375 L 165.65625 187.84375 L 205.976562 187.84375 M 165.65625 187.84375 L 0.164062 187.84375 C 14.570312 187.84375 23.734375 179.300781 31.082031 168.234375 L 49.277344 156.691406 C 61.898438 148.707031 76.125 144.8125 90.269531 144.8125 C 94.015625 144.8125 97.746094 145.082031 101.453125 145.625 C 106.089844 153.117188 111.769531 159.269531 121.863281 159.269531 C 124.953125 159.269531 128.460938 158.691406 132.472656 157.398438 C 136.777344 160.226562 140.847656 163.515625 144.605469 167.261719 L 161.164062 183.730469 C 162.570312 185.132812 164.160156 186.535156 165.65625 187.84375 " fill-opacity="1" fill-rule="nonzero"/></g></svg>